<?xml version="1.0" encoding="utf-8"?>
<!-- Generator: Adobe Illustrator 25.1.0, SVG Export Plug-In . SVG Version: 6.00 Build 0)  -->
<svg version="1.1" id="Layer_1" xmlns="http://www.w3.org/2000/svg" xmlns:xlink="http://www.w3.org/1999/xlink" x="0px" y="0px"
	 viewBox="0 0 881.9 410.4" style="enable-background:new 0 0 881.9 410.4;" xml:space="preserve">
<style type="text/css">
	.st0{fill:#FFFFFF;}
</style>
<g>
	<path class="st0" d="M143.9,144.1C162.3,122.6,220,53.5,213,25.9C189.4,9.2,85.3,88.1,62.7,106.6c-8,6.5-18.5,14.1-25.9,21.5
		c-6.9,6.7-12.1,18.6-19.9,24.3C0,163.6-4.2,147.6,6.6,137.1c8-9.1,17.7-18.7,27.9-25.1C54.9,94.7,222.6-27.5,229.3,27.1
		c2,29.8-79.6,125.8-102.7,154.5c-32.9,41.6,24.8-19.4,35.2-28.2c25.8-20.7,51.2-42.6,79.4-59.8c22.6-15.5,70.2-33.2,43.2,13.5
		c-6.8,12.6-16,22.1-24.3,33.4c-11.2,12.7-21.2,29.9-32.1,42.7c-6.1,13.7-15.3,27.9-22.5,41.1c-2,2.7-4.5,6.7-5.2,10.1
		c5-4,10.7-8.3,15.5-12.4c13.7-12.4,29.4-23,43.2-34.7c18.4-17.2,39.4-34.3,58.7-51.2c41.4-32.9,80.8-67.4,123.7-98.6
		c17.6-15.7,45-7,36.5,19.7c-14.9,49-42.6,93.3-66.8,138.2c-11.6,19.1-24.6,39.9-34.9,60c-11.1,16-21.9,32.7-31.6,49.7
		c-10.8,20-18,38.2-25.9,59c-3.8,8.9-9.1,19.6-6.5,29.5c1.7,4.5,7.9-1,11.1,2.8c7,9.9-16,20.2-21.5,9.8c-8.3-23.4,7.3-49,16.3-70.4
		c16.7-37.1,38.4-69.7,58.7-104.5c13.9-27.1,34.2-53.3,46.8-81c12.2-21.1,19.1-44.9,30-66.5c31-71-14.4-28.9-45.5-9.1
		c-57.2,41.5-109,89.8-160.7,137.9c-21.3,13.6-40.6,32.4-56.9,52c-17.3,11.4-20.7-7.2-11.6-19.1c17-30.5,35.9-60.6,56.4-88.7
		c13.5-19.8,30.9-38.9,40.4-61.3c5.6-22.4-96,50.4-99.9,59.3c-28.8,26.1-58,55.5-83.1,85.9c-12.7,23.3-47.5,39.2-23.3-1
		C92.2,206.8,119.8,175.5,143.9,144.1z"/>
	<path class="st0" d="M768.3,111.8C789,88.1,810,63.5,833.5,42.4c-41.2,18-79.7,43.8-123.2,57.7c-12.7,6.3-29.5,10.7-42.2,16
		c-10.5,5.7-22.5,8.2-34.2,10.9c-12.2,4.8-28,9.1-40.9,11.4c-12.7,20.1-28.4,40.5-40.9,60.8c-22.1,31.4-36.2,66.6-52.3,100.9
		c-5.2,10.4-3.9,22.4-5.2,33.4c-20.8,13.7-14.1-20.8-9.6-31c4.6-14.6,12.7-30.2,15.3-45.8c3.8-21.2,13.3-54.2-10.3-66.8
		c-10.4-6.2-38.9-12.9-30.3-29c9-9.2,24.3-10.3,36-13.7c17.5-3.7,35.7-8.1,53.8-10.4c9.8-1.7,20.6-3.5,30.3-5.7
		c6.1-0.8,12-2.1,14.5-8.3c14-23.5,29.7-46.8,40.9-71.7c6.6-11.1,13.7-23,15.3-36c1.5-5,6.9-10.7,12.7-9.3
		c13.8,7.6-4.6,29.2-8.3,39.3c-10.6,15.8-21.1,32.1-31.6,48.1c-2.6,7.2-31.9,39.9-13.7,29.8c62.4-16.5,123.6-38.7,181.1-68.8
		C812,40,835.4,33.3,854.5,15c9.8-20.8,43.1-19.2,17.3,4.1c-21.7,18.1-40.4,41.7-61.8,59.5c-37,41-72.5,84.3-101.9,130.7
		c-28.5,46.1-66.1,98.5-51.5,154.7c1.3,5,3.2,10.5,2.1,15.8c-5.5,1.4-7.6-3.4-8.5-8c-19-50.4,17.6-113.9,41.7-154.7
		C712.6,180.3,740.2,143.1,768.3,111.8z M491.4,162.5c-3.3,2.3-18.7,7.9-9.6,11.1c3.7,3.5,8.5,5.8,12.7,8.5
		c20.8,10.5,21.2,38.5,19.1,58.7c-3,9.1,3.7-3.8,4.9-7.5c10.6-14.7,20.1-31.4,30.8-46.1c11.2-14.3,21.5-32.7,33.1-46.6
		C551.9,146.3,521.3,153.5,491.4,162.5z"/>
</g>
</svg>
