<?xml version="1.0" encoding="utf-8"?>
<!-- Generator: Adobe Illustrator 25.1.0, SVG Export Plug-In . SVG Version: 6.00 Build 0)  -->
<svg version="1.1" id="Layer_1" xmlns="http://www.w3.org/2000/svg" xmlns:xlink="http://www.w3.org/1999/xlink" x="0px" y="0px"
	 viewBox="0 0 817 132" style="enable-background:new 0 0 817 132;" xml:space="preserve">
<style type="text/css">
	.st0{fill:#FFFFFF;}
</style>
<g>
	<path class="st0" d="M47,46.8l0.3-0.2l4.9-6.1l0.3-0.6l1.9-2l0.1-0.1l0.8-1.3l0.5-0.3l2.6-3.5l3.3-4.5c0,0,0.1-0.2,0.2-0.3l0.6-1.1
		l0.4-1.2l1-1.2l1.3-2.3l0.3-0.6l0.8-1.5l0.3-0.8l1.1-1.6l0.5-1.2l0.6-1.1c0.5-1.1,0.9-2,1.3-3l0.2-0.7l0.2-0.2
		c0.2-0.5,0.3-1.1,0.3-1.5l-0.4-0.6V8.8l-0.1-0.3l-0.2-0.9l-0.1-0.9c-1.4-0.9-4.3-1.2-5.6-0.7l-3,1.2l-0.9,0.4h-0.2l-2.9,1.3L57,8.9
		l-0.9,0.4l-0.3,0.3L54.8,10l-0.7,0.2c-1.5,0.7-2.9,1.4-4.4,2.2h-0.1c-0.3,0.2-0.5,0.3-0.8,0.4l-1.9,1.4l-0.6,0.5l-0.8,0.1l-1.2,0.4
		l-0.3,0.1l-0.5,0.3l-0.2,0.2l-4.3,3.3l-0.3,0.1l-1,0.8v0.2H38l-3.2,2.3l-0.3,0.3l-0.3,0.1l-1.3,0.6L32,24v0.2l-0.9,0.8l-0.7,0.3
		l-2,1.6H28l-1.7,1.6l-1.9,1.1l-2.9,2.3l-0.6,0.8l-0.8,0.6l-0.3,0.3l-1.5,1.2v0.2L18,35.5l-0.5,0.2l-0.8,0.5l-0.8,0.4h-0.1l-0.4,0.3
		L15,37.1l-0.4,0.2l-4,2.9l-0.1,0.7l-0.2,0.5l-1.1,0.8H8.2l-0.8,0.5L7.3,43l-0.3,0.1l-0.4,1.2l-0.2,0.7c0.8-0.1,1.3,1.3,0.3,1.9
		L6,47.3l-0.2,0.2l-0.1,0.3l-0.8,0.4l-1.3,1l-0.8,0.5L2,49.4l-0.2-0.3c-0.2,0-0.4,0-0.6-0.1c-0.7-0.3-0.9-0.8-0.9-1.3
		c0.2-0.8,1-2,2.2-3.5l0.8-0.8l0.1-0.2v-0.2l0.4-0.3l0.3-0.3l-0.2-0.4h0.2l0.7-0.4h0.1v-0.2h0.3l0.5-0.7l0.1-0.1l0.3-0.5L6.4,40
		l0.3-0.5l0.8-0.8l0.8-0.3l0.3-0.3L9,37.9l0.6-0.3l0.2-0.1l0.4-0.3l0.3-0.3l0.2-0.1l0.8-0.7l0.3-0.3l0.3-0.3l0.4-0.4l0.3-0.2
		l0.2-0.5l0.2-0.2l0.6,0.1l3.4-2.4v-0.1l0.9-0.8l0.4-0.3l0.3-0.1c1.6-1.3,3-2.2,3.9-2.9l3.5-2.4l0.2-0.2l0.6-0.4l0.6-0.6l0.5-0.3
		l0.3-0.4l0.2-0.3l1.3-0.5l1.2-0.7l1.3-0.7l1.6-1c0.5-0.3,1.1-0.6,1.7-0.9l0.1-0.3l0.6-0.5l0.2-0.2l0.9-0.3l0.3-0.3l0.5-0.3l0.5-0.2
		l1.9-1.3l0.4-0.5l0.3-0.2l0.5-0.4l0.2-0.2l0.3-0.5l0.2-0.2l0.7,0.1l0.7-0.2h0.1l1.3-0.8l0.3-0.3l0.6-0.7l0.3,0.1l0.3,0.1
		c0.8-0.3,1.6-0.8,2.4-1.3l0.2-0.3l0.3-0.2l0.6-0.1l0.4-0.3l0.1,0.1l0.3-0.2l0.1-0.1l0.4-0.2c2-1,4.2-2,6.3-2.9L58,7l1-0.3
		c0.1,0,0.2,0,0.3-0.1l0.6-0.3l2.7-1.3L63.9,5h0.3c0.2,0,0.3,0,0.4-0.1c1.6-0.4,7.2-1.6,8.6,0.8c0.4,0.7,0.6,1.5,0.5,2.4l0.3,0.7
		v0.4l-0.3,0.9l-0.6,1.1l-0.3,1.3l-0.3,0.6l-0.4,0.8l-0.3,0.5V15l-0.7,0.7L71.1,16l-0.3,0.5l-1.5,2.6v0.3l0.1,0.3l-0.5,0.2l-0.9,1.4
		l-0.1,0.3l-0.3,0.3h-0.1l-0.8,1.5c-2.3,3.9-4.9,7.2-7.6,10.8L59,34.4h-0.2l-0.5,0.8L57,36.8v0.1l-0.9,1l-3.2,4.4l-0.8,0.8l-2.6,3.6
		L47,49.6l-0.8,1l-1.9,2.6l-0.8,0.7l-2.4,2.9L41,57.7h-0.5l-1.3,1.6l-0.2,0.3L39,59.6L38.6,60l-0.3,0.8l-1,1.5v0.3l-0.7,0.2l-1.4,2
		l-0.8,1.6l-0.3,0.5l-0.7,0.5l-0.3,0.8l-1.6,2.2l-0.4,1l-0.8,1l-0.6,0.8l1.1-1h0.1c1.1-1.3,2.3-2.6,3.6-4v-0.1l0.6-0.9l0.9-0.8
		l0.7-1.2l0.4-0.4l0.5-0.7l0.8-0.6l0.9-0.9l1.7-1.3l0.1-0.1l0.3-0.2c0.1-0.2,0.3-0.3,0.4-0.4l0.3-0.8h0.1l0.2-0.2h0.4l0.9-1l0.2-0.2
		l0.2-0.3l0.3-0.1c2-2,4-3.9,6.1-5.8l0.8-1.2l0.8-0.5v0.2l3.2-2.9l0.1-0.1l0.8-0.8h0.1l1.1-0.9l0.3-0.5l1.9-1.3l2.2-1.7l0.2-0.2
		l1.1-1l0.5-0.3c0.5-0.5,1.2-0.8,1.8-1.3v-0.1l0.2-0.1l0.4-0.3l0.1-0.3l0.6-0.3l0.5-0.4l2-1.5l0.3-0.5h0.5v0.1l1.3-0.9l0.9-0.8
		l0.3-0.4l0.6-0.3l0.3-0.4l0.6-0.5l0.3-0.2l2.4-0.8l1.8-1l0.6-0.5l0.3-0.3l1.9-0.9l0.6-0.3h0.1c0.3-0.2,0.7-0.4,1-0.7L83,28l1.3-0.7
		l0.3-0.3H85l1.3-0.7l0.3-0.3l0.6-0.4l1.3-0.3l0.1,0.1c1.5-0.5,2.9-0.8,4.2-0.5c0.6,0.2,0.9,0.3,1.1,0.8c0.1,0.5,0.1,1,0,1.4h0.1
		l0.3,0.3l0.2,0.3l0.1,0.4h-0.1L94.3,29l0.1-0.1l0.1,0.2l-0.1,0.3L94.3,30l-0.3,0.6L94,30.7v0.1L93.8,31l-0.1,0.3l0.2,0.2h-0.2
		l-0.3,0.3h-0.1l-0.2,0.1L93,32h-0.3l-0.2,0.1l-0.5,0.5L92,33.1l-0.3,0.4L91,34.1l-0.9,1.3v0.2H90l-0.1,0.1l-0.1,0.3l-0.2,0.4
		l-0.6,0.8l-0.4,1.3L88.3,39L88,39.1l-0.4,0.5l-0.3,0.5l-0.3,0.4l-0.6,0.6l-0.1,0.2l-0.1,0.3l-0.1,0.1h-0.2L85,42.8l-0.2,0.3
		l-0.6,0.7l-0.3,0.5l-1.1,1.3l-0.2,0.3l-0.8,1l-3.7,5.1l-0.3,0.6l-0.1,0.1v0.1L77.6,53l-0.1,0.3l0.2,0.2h-0.2l-0.3,0.3v0.2l-0.4,0.3
		l-0.2,0.3l-0.2,0.1L76,55c0,0-0.1,0.1-0.1,0.2l-0.1,0.4L75.5,56l-0.4,0.3l-0.3,0.3l-1.2,1.6l-0.1,0.3l-0.1-0.1l-0.3,0.4l-0.2,0.8
		L72,61.2v0.3l-0.4,0.2L70.3,64l-0.7,1.6l-0.3,0.7l-0.4,0.6l-0.3,0.8l-2.3,3.1L65.9,72l-0.8,1.2l-0.5,1.1L63.2,78l0.4,0.1l0.1-0.2
		l0.7-0.7l0.8-1.1l0.6-0.4l0.8-0.5l0.4-0.4l0.4-0.3L67,74.4l0.1-0.3l0.3-0.2h0.1l0.1,0.1l-0.2,0.3l0.2-0.2l0.5-0.3l0.2-0.3h0.3
		l1.2-0.9l0.3-0.3l0.7-0.5l0.5-0.5l1.3-1l0.2-0.3l3-2.4l0.4-0.4l0.4-0.3l0.1-0.2l0.8-0.6l0.7-0.7l1-0.8l0.5-0.2l0.3-0.2l0.5-0.5
		l0.2,0.1l0.3-0.4l0.5-0.3l0.2-0.3l0.5-0.3l1.2-0.8l0.3-0.3l0.5-0.3l0.1-0.2l0.5-0.4l0.1-0.2h0.1l0.1-0.1h-0.5l0.2-0.6l0.6-0.3h0.3
		l0.2,0.1h0.3l0.2-0.2l0.3-0.2l0.1-0.3l0.4-0.3l0.1-0.1h0.1l4.4-4l0.2-0.3l0.3-0.3l0.3-0.5l0.3-0.3l0.1-0.5l0.2-0.2l0.6-0.1l0.6-0.3
		l0.3-0.2l0.4-0.3l0.2-0.2l1.5-1.3l4.3-3.5l0.5-0.7l1.1-0.6l0.1-0.3l1.3-1.3l0.5-0.1l0.3-0.3l0.2-0.4l0.1-0.1h0.1l5.2-4.4l1-0.5
		l0.3-0.6l1-0.6l4.4-3.5l0.5-1h0.8l2.9-2.4l0.1-0.1l1.5-1.3l0.3-0.3l3.5-2.8l0.4-0.4l0.6-0.3l0.1-0.3l0.8-0.8l0.3-0.1l0.2-0.3
		c2.4-1.6,2.4-1.6,4.7-3.8l0.7-0.3l2.1-1.8l0.3-0.6h0.3l0.5-0.2l1.2-0.8l0.1-0.3l0.4-0.6l0.3-0.1l0.9-0.3l0.3-0.3l0.5-0.2l0.2-0.1
		l2.1-1.4l0.4-0.7l0.3-0.3l0.4-0.3l0.3-0.3l0.1-0.5l0.2-0.1h0.7l0.6-0.3l1.4-0.4l1.2-0.2c1.2-0.3,3.1-0.8,4.5,0.5l0.3-0.1l0.3,0.2
		l0.2,0.3l0.1-0.1l0.1,0.1l-0.1,0.1v0.2l0.1,0.3l0.2,0.4V12c0.1,0.3,0.2,0.6,0.2,0.9l0.4,0.9v0.7l-0.1,0.3l-0.4,1.2l-0.1,0.1
		l-0.3,1.5l0.1,0.2l0.1,0.4h-0.1l-0.1,0.7l0.1-0.1l0.1,0.2l-0.1,0.3l-0.1,0.6l-0.3,0.6l-0.1,0.1v0.1l-0.2,0.2l-0.1,0.3l0.2,0.2h-0.2
		l-0.3,0.3h-0.1l-0.2,0.1c-0.5,1.5-1.1,2.9-1.7,4.3l-0.3,1.3l-0.4,1.9l-1.4,3.1l-0.6,0.8l-1.3,2.9l-0.6,0.8l-0.5,0.8l-1.6,3.1
		l-0.5,1l-0.1,0.1c-1.5,3.1-3.2,6.3-4.9,9.4l-2.5,4.8l-0.3,0.4h-0.2l-0.5,1.1v0.9l-0.4,0.3l-0.5,0.2l-0.9,1.6l-0.8,1.9l-0.3,0.3
		l-0.5,0.9l-0.4,0.9l-0.5,0.6h0.6l0.1,0.7l-0.3,0.4h-0.3l-0.2-0.2v-0.4l-0.2,0.3l-0.8,0.5l0.3,0.5l-0.2,0.2h-0.3l-1.3,2.1l-0.1,0.5
		l-0.8,1.3l-0.4,0.8l-1.4,2.3l-0.1,0.6l-3.4,5.2l-0.3,0.8l-0.5,0.8v0.3l-0.9,1.4l-0.4,0.3l-0.1,0.5l-1.3,2.1l-0.3,0.3l-0.4,0.5
		l-0.3,0.1l-0.1,0.7l-0.4,0.5H117l-0.3,0.9l-0.4,0.7l-0.2,0.5l-0.5,0.8l-0.8,0.8l-0.7,0.9l-1.5,2.8v0.4h-0.3v0.3h-0.1l-0.5,1.1
		l-0.4,0.8h-0.1c-1.8,3-3.2,5.9-4.6,9.1v0.4l-0.3,0.6v0.2l-0.3,1l-0.3,0.3v0.3l-0.7,1.7l-0.3,0.2l-0.1,0.3l-0.1,0.1
		c-0.1,0.1-0.1,0.2-0.1,0.3v0.3l-0.3,0.5c-0.1,0.1-0.2,0.3-0.2,0.3v0.2l-0.3,0.8l-0.3,0.6l-0.3,0.2l-0.7,2.3
		c-0.8,2.2-1.9,4.7-2.4,7.2v1.2l0.1,0.8l0.1,0.3l0.1,0.4l0.1,0.1h0.1l0.1,0.1l-0.1,0.1l0.6,0.6l0.5,0.8l0.1,0.3l0.1,0.6
		c0.3-0.2,0.6-0.6,0.8-1.1c0.8-1.1,2.7-0.5,1.9,0.8c-1.7,3.1-7,4-6.8-1.3c0.2-7,3.4-13.4,6.1-19.5c1-2.6,2.7-5.3,4.2-7.9l0.2-0.4
		l0.3-0.7l0.7-1v-0.1l1.3-3.1l0.2-0.3l2.2-3.3c0.8-1.6,1.8-3.2,2.7-4.7l0.2-0.8l0.8-0.8l2.4-4.2l0.3-0.6l0.2-0.5l0.4-0.5l2.2-3.5
		l0.2-0.3l0.1-0.3l0.7-1l1.5-2.5l0.2-0.4l0.2-0.3l0.6-1h0.1l0.7-1.3l0.4-1l4.4-7l1.2-1.9l0.2-0.4l0.1-0.2l0.9-1.2h0.1l3.3-5.7
		l0.2-0.3l1.2-2.7l0.3-0.2l0.3-0.8l-0.1-0.1l0.2-0.2l1.3-2.8l0.3-0.3l0.2-0.3l0.6-0.9c0-0.1,0.1-0.2,0.2-0.3c0,0,0-0.1,0.1-0.2
		l0.1-0.4l1.1-2.9l0.2-0.8l0.4-2l1.2-1.6l1.5-3.7l1.3-3.5l0.6-0.9l0.3-1.2l0.2-0.3l-0.1-0.3l0.3-0.4l1-2.1l0.8-2l1.4-1.9l0.3-1.4
		v-0.5l0.2-0.5l-0.2-0.2h-0.2l-0.3-0.3h0.2l-0.5-1.3l-0.4-1.3v-0.6l0.1-0.4l-1,0.5h-0.8l-0.8-0.1v0.1h-0.1l-0.1-0.1h-0.1l-0.5,0.2
		l-1.2,0.6l-0.3,0.3l-0.8,0.5l-0.3,0.1l-3.4,2.2l-0.9,0.7l-1,0.7l-1.7,1l-1,0.8l-5,3.4l-1.1,0.7l-0.3,0.3l-0.5,0.4l-0.3,0.1
		c-1.7,1.2-3,2.2-3.9,2.9l-1.3,1l-0.2,0.2l-1.3,1.1l-0.3,0.2l-0.4,0.3h-0.1v0.1h-0.1l-0.1,0.1l-0.8,0.6l-0.1,0.1l-2.1,1.7l-0.4,0.4
		l-0.5,0.6l-1,0.7l-1.4,1.1l-0.3,0.4l-4.6,4l-1.6,1.5l-0.4,0.3l-0.8,0.4l-4,3.5v0.2l-0.4,0.3l-0.3,0.3l-0.4,0.3h-0.1
		c0,0.1,0,0.1-0.1,0.1l-0.2,0.3l-0.4,0.4l-0.6,0.5h-0.2l-0.3,0.3l-0.2,0.5l-0.2,0.3l-0.2,0.2l-0.3,0.2l-0.2,0.2h-0.1l-0.1,0.2
		l-0.6,0.4l-0.4,0.3l-1.9,1.7l-0.7,0.6l-0.4,0.7l-1.2,0.7L94.8,54l-7.4,6.7L87.3,61l-0.4,0.2v0.3l-0.5,0.4l-0.5,0.3L83.7,64v0.2
		h-0.3l-0.1,0.1v0.1h-0.1l-1.8,1.6l-0.1,0.2l-0.6,0.6l-0.2,0.3L80,67.7L79.2,68l-1.7,1.5c-0.3,0.3-0.9,0.7-1.6,1.1l-0.5,1.2
		l-0.3,0.4l-0.9,1.1l-1.3,0.5l-0.7-0.2l-0.5,0.3l-1.3,1.9l-1.7,1.1l-1.4,1.3l-0.3,0.6l-0.4,0.5v0.3h0.2V80h-0.4l-1.9,1.2l-1,1.3
		l-0.4,0.6l-1.5,1.7l-2.1,0.8l-1,0.2l-1-0.6v-0.7l-0.2,0.6v-1.4l0.2-1h-0.2v-0.6l0.3,0.3l0.3-0.7l0.6-0.7l0.5-1.6l1.5-2.3
		c0.8-1.6,1.6-3.1,2.4-4.5l1.2-1.9c0.2-0.3,0.4-0.7,0.7-1l0.1-0.5l1.6-2.4l1.4-2.5l0.6-0.7l0.3-0.8l1.6-2.1l0.9-1.4l0.5-0.8l0.2-0.2
		c0.7-1,1.3-1.9,2-2.9l1.2-1.9l0.5-0.5l1.2-1.6c0.2-0.3,0.4-0.5,0.6-0.8l0.4-0.7v-0.3l0.1-0.1l0.1-0.2l0.3-0.3l0.7-0.8l0.4-0.4
		l2.9-4.2l0.2-0.3l0.3-0.3l2.4-3.5l0.6-0.8v-0.1l0.4-0.7l0.1-0.1l0.1-0.3l0.3-0.4l0.3-0.3l0.9-1.2L88,35l1.3-2.3l0.6-1.2l0.1-0.7
		l0.3-0.5v-0.9l0.2-1c-0.2-0.5-0.8-0.8-1.8-0.6c-1.4,0.3-2.7,0.8-4,1.4l-0.3,0.2h-0.2l-3.7,2.1c-0.1,0-0.1,0.1-0.1,0.1L80,32
		l-0.6,0.5l-0.8,0.5l-0.3,0.2l-0.8,0.1L76.7,34v0.1h-0.2L76.5,34c-1.2,0.7-2.3,1.4-3.3,2.1c-0.3,0.3-0.7,0.4-0.9,0.7l-0.2,0.1
		l-0.5,0.3l-0.2,0.1c-2.1,1.3-4,2.3-6,3.9c-0.6,0.4-1.2,0.8-1.7,1.3l-0.5,0.6l-0.6,0.4L62.1,44l-0.8,0.5l-0.2,0.4L60.9,45h-0.3
		l-3.1,2.8l-1.4,1.7l-0.6,0.6l-1.8,1.4l-1,0.9l-1.6,1.3L46,58.9V59l-0.1,0.1l-3.4,3.5l-0.8,0.8c-0.3,0.4-0.6,0.7-0.8,0.9l-0.2,0.3
		l-0.8,0.8l-1.8,1.9l-0.3,0.6l-1.1,0.8l-0.4,0.6l-0.8,0.8l-2.9,2.9l-1.8,2.1l-1,1.4l-0.4,0.5l-0.2,1.1L28.8,79l-0.9,1.8l-1.6,1.3
		h-0.9c-1.3,1.4-2.7,2.5-4,2.4l-0.7,0.3l-0.3-0.4v-0.8c-0.3-0.9-0.2-0.8,0.3-1.2v-0.1l0.2-0.7l0.7-1l0.4-1.3l0.8-1.1l0.5-1.3
		l0.2-0.5l0.6-0.8l0.6-0.7l0.4-0.6l0.3-0.4l1.6-1.7v-0.1l0.5-0.6l0.3-1v-0.2l0.3-0.1l0.6-0.1l0.9-1.6l0.2-0.2l0.3-0.1l0.1,0.3
		l0.4-0.6l0.3-0.8l0.7-0.7l0.3-0.5h0.3v-0.3l0.8-0.9l4-5.2l0.3-0.4l0.5-0.5l1.2-1.4v-0.1l0.2-0.4l1-0.9l0.2-0.3v-0.2l4.8-5.8
		L47,46.8z"/>
	<path class="st0" d="M165.8,69.6l-0.8,0.7l-1.2,0.5L163,71l-0.4,0.3l-0.1,0.2l-0.3,0.2l-1.1,0.4l-0.8,0.3l-0.1,0.2l-0.3,0.2
		l-0.6,0.2l-1.3,0.7l-0.5,0.3l-1.3,0.8l-0.7,0.3l-0.5,0.3l-0.9,0.5l-0.8,0.3l-0.5,0.2l-1.3,0.3l-1.2,0.6l-1,0.2l-1.4-0.1l-0.9,0.3
		l-1.6-0.3c-0.8-0.3-1.5-0.7-1.9-1.3l-0.3-0.3l0.1-0.5c-0.1-0.7-0.1-1.4,0.3-2.3v-0.3l0.6-1.7l0.7-1.7l0.2-0.6l0.6-1l0.6-0.7
		l0.2-0.3l0.5-0.4c0.2-0.3,0.3-0.5,0.6-0.8l0.7-1l0.3-0.6l0.3-0.5l0.3-0.3l0.3-0.8l0.8-0.8l0.5-0.3l0.3-0.5l0.8-0.7l1.6-2.7l0.4-1.3
		l0.9-1.2l0.6-0.5l0.3-0.7l0.3-0.3l0.2-0.8v-0.4l0.4-0.7l0.6-0.4l0.3-0.2h0.2v-0.2l0.6-0.6l0.6-0.3c0.3-0.4,0.8-0.8,1.3-0.7
		c0.1,0,0.2,0.1,0.3,0.2l0.3-0.2l0.1-0.2l0.5-0.1l0.7,0.1l0.6,0.4v0.4l-0.2,0.9l-0.6,0.9l-0.8,0.9l-0.3,0.3l-0.3,0.3h-0.2l-0.5,0.2
		l-1.4,1.3l-0.2,0.4l-0.1,0.2l-1.2,1.2c-0.1,0.2-0.3,0.3-0.3,0.3l-0.1,0.5l-0.8,0.7l-0.6,0.8l-0.7,0.7l-0.2,0.3l-0.6,0.4l-0.3,0.6
		l-0.2,0.3l-1,1.2l-1.3,1.4L150,64l-0.5,0.8l-0.9,1.6c-0.7,0.8-0.8,0.8-0.8,1l-0.6,1.5l-0.2,0.7l-0.7,1.4l-0.5,1.8v0.5l-0.2,1
		c0.2,0.8,0.3,0.8,0.3,0.9l0.3,0.2l0.5-0.1h0.3l0.6,0.1l0.5-0.2l0.5-0.1l0.3,0.2h0.4l1.8-0.4h0.3c0.4-0.2,0.9-0.3,1.4-0.4l0.4-0.3
		l1-0.6l0.8-0.4l1.7-0.4l1.3-0.5l0.8-0.2l2.9-1.4l0.2-0.3h0.5l1.5-0.8l0.1-0.1l0.2-0.3l0.7-0.3h0.3l0.3-0.3l0.5-0.2l0.7-0.3l0.8-0.5
		l0.8-0.4l0.9-0.7l0.3-0.3l1-0.6l0.4-0.2l0.3-0.3l1.8-1h0.3l0.6-0.4l0.4-0.2l0.4-0.3c0.2,0,0.2-0.1,0.3-0.1l0.4-0.4l0.6-0.3l0.3-0.3
		l0.6-0.3l0.8-0.4l0.4-0.3c0.7-0.4,1.4-0.9,2.4-1.4l0.2-0.3h0.3l0.3,0.1l0.3,0.5l-0.3,0.3l-0.3,0.2l-0.5,0.3l-0.2,0.3l-0.2-0.1h-0.1
		v0.2l-1.1,0.6h-0.3l-2.6,1.6l-0.8,0.6l-0.8,0.7l-0.8,0.3l-0.5,0.3c-1.6,1.1-3.1,2.1-4.5,2.9l-0.3,0.4l-0.3,0.2l-1,0.3l-0.3,0.2
		l-0.2,0.2L165.8,69.6z M173.1,30.9l-0.7,1.2l-0.3,0.4l-0.3,0.3v0.1l-0.8,0.2l-0.8,0.2l-0.7,0.3l-0.7,0.5l-0.1,0.1l-0.3,0.2
		l-0.4,0.7l-0.8,0.3l-0.7,1.3l-0.8,0.3l-0.3,0.4l-0.6,0.7v0.2l-0.9,0.6l-0.1-0.7l0.3-0.3c0-0.1,0.2-0.3,0.2-0.5l1-1.4l-0.2-0.7
		l0.6-1.3l0.3-0.5l0.8-1l0.6-0.7l0.2-0.1l0.9-0.9l0.3-0.4l0.7-0.4L170,29h0.1l0.3-0.3h-0.2l0.4-0.2v0.2l0.6-0.6l0.8-0.3l0.7,0.7
		l0.8,0.3l-0.3,0.9l0.2,0.4L173.1,30.9z"/>
	<path class="st0" d="M180.1,61.1c-1,0.8-1.9,1.6-2.9,2.4l-0.2,0.2l-0.6,0.5l-0.4,0.6l-0.3,0.4l-0.4,0.1l-0.1,0.3l-0.4,0.3l-0.1,0.3
		h-0.3l-1.4,1.6v0.2l-0.2,0.2l-0.3,0.7l-0.3,0.3l-0.3,0.4c-0.3,0.7-0.4,1.3-0.1,1.8l0.3,0.3l0.4,0.3l0.5,0.2l0.1,0.1
		c0.8,0.3,1.7,0.2,2.8,0.1l1.1-0.4l0.7-0.1h1.1l1.3-0.3h0.7l0.8-0.3l0.2-0.1l2.2-0.6h0.3l1.3-0.4l0.6-0.3l0.8-0.3l0.5-0.4l2-0.4
		l0.7-0.3l0.4-0.3l1.6-0.5c1.9-0.7,3.7-1.2,5.5-1.8l2.6-1h0.3l0.5-0.2l0.6-0.2l2.2-0.8l1-0.2c1-0.3,2.1-0.7,3.2-1.1l2.4-0.9v-0.2
		l0.2,0.1c0.2,0,0.3-0.1,0.5-0.2l0.5-0.3l0.1-0.2l3.5-1.3c1.3-0.6,2.6-1.3,4-2.1l0.3-0.3l0.3-0.1h0.5l0.3,0.4l-0.3,0.3l-1,0.8
		l-0.9,0.3c-3.4,2-5.1,2.8-6.7,3.5v0.3l-0.2,0.2h-0.7l-1.3,0.4l-0.9,0.4h-0.3l-0.8,0.3l-2.1,0.8l-0.1,0.1h-0.2l-2.3,1l-1.4,0.5h-0.1
		l-0.3,0.2l-0.4,0.3l-0.9,0.3l-0.3,0.1l-0.4,0.1l-0.5,0.1l-0.9,0.3l-2.7,0.9l-0.8,0.3h-0.3l-2.9,1.3l-3.9,1.2l-2.8,0.9l-2.2,0.8
		l-2.4,1l-1.5,0.4l-1.9,0.2h-0.6l-0.3,0.2l-1.5-0.3l-1.5-0.6h-0.2l-1.3-0.4l-0.4-0.4v-0.4l-0.2-0.4l-0.1-0.5l0.2-0.4
		c0-0.5,0-0.9,0.1-1.4l-0.2-0.2v-0.3l-0.1-0.2l0.3-0.1v-0.5h-0.1v-0.1h0.2l0.1-0.3v-0.3l0.1-0.1V68l0.2-0.6l0.7-0.8l0.2-0.3l0.2-0.1
		v0.1l0.3-0.5v-0.1l0.3-0.3l0.2-0.1l0.8-0.8l0.2-0.3l0.7-0.7l0.5-0.8l0.3-0.2l0.7-0.7l0.5-0.2l0.2-0.2l0.3-0.4l0.4-0.3l0.7-0.2
		c0.6-0.5,1.3-0.9,2-1.4l0.1-0.2l0.2-0.1l0.6-0.6l0.3-0.1c0.3-0.2,0.7-0.4,1-0.7l0.5-0.5l0.6-0.2l0.3-0.3h0.1l4-2.4l0.6-0.5l1.9-0.9
		l0.7-0.4l2.1-1.1l0.2-0.1l2.4-1.1l0.6-0.3l0.8-0.4l0.7-0.7l0.4-0.3h1l0.3-0.3l0.3-0.1l0.1-0.2l0.1-0.3l0.3-0.1l0.1-0.2l0.1-0.1
		l0.4-0.2v-0.1l0.1-0.2l0.1,0.2h0.3l0.3-0.1h0.2l0.6-0.1h1l0.1,0.2l1-0.5h1.3l0.3,0.3c0.2,0,0.3,0.1,0.3,0.2l0.4,0.5l-0.1,0.6
		l0.5,0.5l0.1,0.5v0.4l-0.7,0.8l-1,0.7h-0.3l-1.2-0.3l-1.1-0.7l-0.6,0.2l-0.3,0.8l-0.5,0.4l-0.6-0.5l-0.1-0.3l-1.3,0.3l-2.4,1.3
		l-1,0.3l-0.9,0.5L194,53l-1.9,1.1h-0.4l-0.4,0.4h-0.5l-1,0.4l-1.7,0.9l-0.3,0.3l-0.2-0.2l-1.2,0.6l-0.3,0.1l-0.9,0.6l-0.5,0.6
		l-0.6,0.3l-0.8,0.4c-0.1,0.1-0.1,0.2-0.2,0.2l-1.1,0.8l-0.8,0.6l-0.4,0.4L180.1,61.1z"/>
	<path class="st0" d="M244.6,67.2v0.6l-0.3,0.5l-0.1,0.1l-0.2,0.6l0.1,0.2l-0.3,0.4c-0.1,0.3-0.1,0.7-0.1,1l0.1,0.5l0.3,0.3l0.3,0.4
		l0.4,0.3l0.4,0.2c0.3,0,0.6-0.1,0.9-0.2l0.7-0.3l0.2-0.2h0.3l3-1.6l0.3-0.1l0.4-0.2l3-2c0.1,0,0.2-0.1,0.3-0.1l1.7-1.2l0.3-0.3h0.3
		l0.5-0.4l1-0.5l1.3-0.9l0.3-0.3l0.8-0.5l0.1-0.1l1.3-1.2c0.1-0.1,0.2-0.1,0.3-0.1l0.2-0.2l0.3-0.2l0.3,0.4v0.3l-0.3,0.2l-0.8,0.4
		l-1.2,0.8l-0.3,0.3l-1,0.8c-0.8,0.8-1.9,1.6-3,2.4l-0.8,0.7h-0.3l-0.4,0.3l-0.3,0.3l-0.2,0.1l-0.3,0.4l-0.5,0.3l-0.3,0.2l-0.5,0.4
		l-0.3,0.3L252,71l-0.3,0.3l-0.5,0.2l-0.7,0.2l-0.2,0.2l-0.8,0.4l-1.3,1l-0.3,0.2l-0.5,0.4l-0.3,0.2h-0.2l-0.3,0.2l-0.7,0.3
		l-0.6,0.2l-0.8,0.1c-0.5,0.2-0.8,0.3-1.1,0.3c-0.3,0-0.5,0-0.7-0.1l-0.5,0.1l-0.4-0.3l-0.2-0.3c0-0.1-0.1-0.1-0.1-0.1l-0.5-0.7v0.1
		l-0.3-0.5l0.1-1.6l0.1-1.5l0.1-0.6l-0.1-0.7l0.1-0.2l0.5-0.3l0.2-0.3l0.3-0.4l0.1-0.3l0.5-0.6l0.2-0.3l0.2-0.3l0.2-1l0.6-1.1
		c0.3-1.3,1-2.7,1.4-4l0.3-1.3c0.6-1,1-1.8,0.9-2.9l0.1-0.2l0.1-0.6l-0.4-0.4c-0.6,0-1.3,0.3-2.3,0.7l-1.3,0.7l-0.6,0.2l-0.9,0.5
		l-0.7,0.5l-0.2,0.2l-0.7,0.3l-0.6,0.5l-1.6,0.8l-0.4,0.2c-0.4,0.2-0.8,0.4-1,0.6l-0.3,0.3l-4.5,2.4l-0.4,0.6h-0.4l-0.3,0.4
		l-0.3,0.3l-0.6,0.7l-0.8,0.2l-1.3,1.3l-2.7,2.3l-2.2,1.9l-2,1.4l-0.4,0.3l-0.6,0.3l-0.5,0.5v0.3l-0.5-0.2l-1.3,0.7l-0.9,0.6
		l-0.8,0.2l-1.5,0.1l-0.3,0.3h-0.6l-0.4-0.4l-0.2-0.8l0.2-1.1l0.4-1.3l0.2-0.6l0.7-1.2l0.4-0.8l0.5-1.3l0.1-0.2l0.3-0.4l0.3-0.7
		l0.1-0.8l0.3-1L216,63l0.3-1.3l0.3-0.6l0.4-0.7l0.6-0.8l0.3-0.5l0.3-0.6l1.3-1.7l0.7-1.3l0.1-0.3l0.1-0.1l0.1-0.3l0.3-0.1l1-1.3
		l0.2-0.3l0.2-0.3h0.1l1.2-1.9l0.3-0.5l0.4-0.5l0.6-0.8l0.3-0.8l0.3-0.5l0.9-0.9c0.4-0.7,0.8-1.3,1.3-2l1.4-2.5l0.6-0.4
		c1.5-2.2,3.1-4.4,4.7-6.6l0.3-0.3l0.2-0.3l0.3-0.8l0.7-0.6l0.5-0.8l0.3-0.6l0.1-0.6L237,31l0.8-0.7l0.4-0.6l0.3-0.6l0.7-1.5
		l0.4-0.8l0.5-0.7l0.6-0.7l0.8-1.5l0.1-0.3l0.2-0.4L242,23v-0.3l0.4-0.8l0.1-0.1h0.1l0.3-0.4l0.3-0.3l0.2-0.1l0.1-0.2l0.6-0.8
		l0.6-0.8l0.3-0.5l0.2-0.1l-0.1,0.2l0.1-0.1v-0.1l0.3-0.6l0.1-0.3l0.6-0.5l0.3-0.5l0.3-0.3l0.2-0.3l1-1.3l0.4-0.8l0.3-0.8l0.2-0.3
		l0.2-0.5l0.3-0.3l-0.1-0.5l0.1-0.3l0.7-0.2l1-0.8l0.4-0.7l1.2-1l0.5-0.7l0.3-0.5V7.3l0.3-0.3l0.1,0.5l0.7-0.8l0.7-0.3l0.7,0.7
		l0.3,1.1l-1.3,3.1l-2,2.7l-0.8,0.8l-1.9,1.8l-0.9,0.7l-3.5,5.1l0.1,0.1l-0.4,0.7l-0.6,1l-0.4,0.8l-0.5,0.5l-0.8,0.7l-3.3,4.5v0.3
		l-0.8,1.2l-0.3,0.6L238,33l-0.5,0.7l-0.8,1.2l-2,2.4l-0.1,0.6l-1.3,1.3l-0.8,1l-0.2,0.5l-1.2,1.6l-0.8,1.4l-0.7,0.6l-3.9,5.7
		c-0.8,1.2-1.5,2.4-2.4,3.5l-0.1,0.3l-0.2,0.2l-0.3,0.3c-0.8,1.3-1.7,2.5-2.4,3.9l-0.1,0.2l-0.2,0.1l-0.8,1.3v0.7l-0.8,1.7l-0.5,1.5
		l-1,2.3l-0.6,1.5l-0.2,0.8l-0.6,1.2l-0.2,1.2l0.3,0.5l0.3,0.2h0.4l1.1-0.6l0.5-0.5l0.2-0.1l0.3-0.3l0.6-0.3l0.3-0.4l0.5-0.4
		l0.3-0.3l0.9-0.5l0.3-0.2l0.7-0.5l2.6-1.6l0.7-0.6l0.3-0.3l0.5-0.5L227,64l1.1-0.6l2.8-2l0.2-0.3l0.7-0.7l1.3-0.7l1-0.7l0.3-0.1
		c0.9-0.7,1.9-1.3,2.8-1.9l1.1-1.1l0.7-0.4l0.3-0.3l0.4-0.1l0.3-0.3l0.7-0.5l0.8-0.2l1.9-0.5h0.3c1.4-0.5,2.9-0.5,4.5,0.2
		c0.2,0.1,0.3,0.2,0.3,0.3l0.4,0.3l0.7,0.4l0.2,0.5l-0.1,0.7l-0.5,1.1l-0.1,0.1c-0.7,1.3-1.2,2.6-1.7,3.9c-0.3,0.9-0.8,1.8-1.2,2.7
		v0.8l-0.8,1.1L244.6,67.2z"/>
	<path class="st0" d="M287.2,66l0.1-0.2l0.2-0.3l1.5-1.9l0.3-0.7l0.3-0.3l0.1-0.2l0.3-0.2l1-1.1l0.3-0.4v-0.2l0.1,0.1l0.3-0.8
		l-0.1-0.1l-0.4-0.1h-0.8l-1,0.3l-2.4,0.9l-0.6,0.2l-0.4,0.1l-2.4,1.5h-0.1l-0.7,0.4l-0.6,0.3l-0.6,0.3l-1.9,0.9l-1.9,1.1l-0.8,0.3
		l-1.3,0.7l-0.4,0.2l-1,0.6l-0.5,0.2l-1.5,0.9l-0.5,0.3l-0.5,0.4l-0.8,0.3l-0.8,0.3l-2,1.1l-0.2,0.2l-0.8,0.5h-0.2v0.1h-0.8l-1,0.4
		h-0.7c-0.3,0.2-0.6,0.3-0.8,0.3l-0.3,0.3l-1.7,0.6l-0.3,0.1l-1.3,0.5l-0.2,0.1l-0.3,0.1h-0.3l-0.5-0.1h-0.1c-1.3,0.2-2.4-0.1-2.8-1
		c-0.3-1.1,0-2.4,0.6-3.7l0.3-1l0.3-0.1l0.1-0.3l0.3-0.5l0.2-0.3l0.2-0.1v0.1l0.2-0.4l0.6-0.8l0.9-0.7l0.2-0.2l0.7-1.1l0.3-0.4
		l0.7-0.5l1-0.8l3.8-3.4v-0.1h0.1l1.1-0.9l0.3-0.3l1.4-1.2l0.7-0.4l2.2-1.6l0.1-0.1l1-1.1l0.4-0.4l0.3-0.6l0.2-0.1l0.6,0.1l0.3-0.2
		l0.6-0.2l0.3-0.1l0.4-0.1l0.3-0.3v-0.2l0.7-0.3l2.7-1.3l0.5-0.4l0.3-0.2l0.7-0.2L281,49l0.2-0.1l0.8-0.3h0.3l0.4-0.3l0.6-0.1
		l0.5-0.2l0.6-0.2l0.3-0.1l0.8,0.3L286,48h0.5l0.3,0.1h0.2v0.1h0.3l0.3,0.2l0.1,0.2l0.3,0.1l0.2,0.4v0.8l-0.3,0.2
		c-0.1,0.3-0.3,0.4-0.9,1c-0.3,0.2-0.5,0.1-0.6,0l-0.9,0.3l-0.6,0.1h-1.5l-1.3-0.2v0.1h-0.3v-0.1h-0.2l-0.6,0.1h-0.6l-1.2,0.5
		l-1.3,0.6l-1.9,0.8l-1.3,0.6c-0.5,0.3-0.9,0.6-1.4,0.9c-0.1,0.1-0.1,0.1-0.1,0l-0.8,0.6l-0.1,0.1l-0.2,0.1l-3.8,2.8l-0.3,0.3
		l-0.8,0.8l-0.6,0.6l-0.6,0.3l-0.8,0.4l-0.3,0.3l-0.8,0.8L264,62l-0.2,0.3l-1,1.3l-0.3,0.2l-0.2,0.2l-0.3,0.2l-0.2,0.3l-0.3,0.3
		h-0.2l-0.2,0.4l-0.3,0.4l-0.2,0.3l-0.4,0.4l-0.4,0.5l-0.8,1V68l0.1,0.5l-0.1,0.2v0.2L259,69l-0.3,0.3l-0.3,0.3l-0.4,0.5l-0.3,0.5
		v0.2l-0.1,0.2v0.5l0.2,0.3l0.3,0.4l0.3,0.2l1.8-0.7l0.8-0.2L262,71h0.1l0.4-0.1c1.1-0.4,2.2-0.9,3.3-1.4l0.4-0.3l0.6-0.3l0.4-0.3
		h0.7c0.9-0.4,1.9-0.8,2.9-1.3l0.4-0.3l0.6-0.3v-0.1l0.2-0.1l0.3-0.3l0.3-0.1l1.3-0.6l0.7-0.3l0.6-0.3l2.3-1.2l0.6-0.4l2.4-1.1
		l0.5-0.2l1.5-0.8l0.8-0.6l1.5-0.8l0.4-0.3l0.7-0.4l0.4-0.3l1-0.7l1.1-0.7l2.6-0.6h1l0.8,0.2l0.6,0.3l0.3,0.3
		c0.3,0.1,0.5,0.3,0.7,0.6v0.1l0.2,0.1v0.3l-0.1,0.3h0.2l-0.1,0.2l-0.1-0.1l-0.2,0.2l-0.2,0.3l-0.2,0.3l-0.5,0.4
		c-0.1,0.2-0.3,0.3-0.4,0.5l-0.6,0.9l-0.5,0.4l-0.3,0.1l-1,1.2l-0.2,0.2v0.1l-0.2,0.1l-0.5,0.7l-0.2,0.3l-0.2,0.3l-0.7,0.9
		c-0.2,0.2-0.3,0.4-0.3,0.6l-0.3,0.7l-0.1,0.1c-0.2,0.3-0.3,0.7-0.2,0.8c0,0.3-0.1,0.1,0.3,0.2c0.1,0,0.2,0.1,0.3,0.1l0.4-0.1h0.6
		l0.2-0.1h0.6l0.4-0.1l0.2,0.1c0.6-0.1,1.1-0.3,1.9-0.4l0.7-0.2l0.6-0.3h0.5l2.9-0.8l0.3-0.2l0.9-0.3v0.1l1.1-0.3l0.7-0.3l0.3-0.1
		l0.3-0.3l2.8-0.8v-0.2l0.3,0.2l0.8-0.3l0.3-0.3l4-1.2h0.4l2.1-0.7c0.1,0,0.2,0,0.3,0.1h0.2l0.1,0.6l-0.3,0.3h-0.7l-1.4,0.3l-1,0.5
		h-0.3l-1.3,0.3l-0.7,0.3l-1.9,0.9l-1.4,0.6l-1.6,0.5l-1.9,0.7l-0.3,0.2l-0.8,0.3l-0.4,0.3l-0.7,0.3h-0.1l-0.6,0.3l-0.7,0.4
		l-0.3,0.1l-0.2,0.2l-2.2,0.8v0.2l-0.1-0.1l-0.7,0.3l-0.1,0.2l-1.4,0.5l-1.3,0.4l-0.4,0.3l-0.1,0.1l-0.1-0.2l-0.3,0.1l-0.2,0.2
		l-0.2-0.1l-0.1,0.1l-0.6,0.2h-0.9l-0.2-0.1H286l-0.4-0.2l-0.3-0.2l-0.3-0.3l0.1-0.4l-0.1-0.3c-0.1-0.3-0.1-0.6,0.1-1.1l0.3-0.6
		l0.1-0.3l0.6-0.8l0.3-0.4l0.7-0.8L287.2,66z"/>
	<path class="st0" d="M310.3,65.7v0.4l-0.4,0.4l-0.3,0.3c-0.1,0-0.1,0.1-0.1,0.2v0.3l-0.3,0.5l-0.1,2.1c-0.1,0.1-0.2,1.3,0.2,1.7
		c0.5,0.6,0.3,0.6,2.4,1.3l1.4,0.3h1.1l1.3-0.2l6.1-1.3l1.2-0.5l3.3-1.1l0.7-0.4l0.3-0.2h0.2l5.1-2.1h0.3l0.6-0.3l0.8-0.2l2.8-1
		l0.3-0.1c3-1.3,4.2-2,7.2-3.4l1.9-0.7l0.1-0.2l0.5-0.3l1.5-0.5l1.6-0.7V60h0.3l1-0.5l0.1-0.2l4.5-2.8l0.4-0.1
		c0.6-0.3,1.2-0.8,1.9-1.3c0.2-0.2,0.4-0.1,0.5,0.1v-0.1l0.3-0.3l0.3,0.1l0.3,0.8L359,56l-0.8,0.3l-0.4,0.2l-1.9,1.3l-0.4,0.6H355
		l-0.3,0.2c-0.8,0.5-1.6,0.9-2.4,1.3l-0.1,0.1l-0.6,0.3l-0.3,0.3h-0.3l-2.7,1.3l-0.1,0.2l-0.3,0.1l-0.7,0.3l-0.2,0.1l-1.2,0.8
		l-3.2,1.3c-1,0.5-2,1.1-3,1.5l-0.3,0.3l-4.2,2l-0.3,0.3l-0.2-0.3l-0.9,0.6l-1,0.2l-0.7,0.3h-0.1c-1.1,0.5-2.2,0.9-3.3,1.3l-1.3,0.7
		l-2.6,1.3l-0.7,0.2l-1,0.2l-1.4,0.4l-0.8,0.1l-0.3,0.2l-0.3,0.3l-1.1,0.3H319c-1,0.3-2.2,0.6-3.4,0.8l-0.3,0.3l-0.4,0.1h0.1
		l-1.7,0.3l-0.5-0.2l-0.9,0.3l-2-0.3l-1.9-0.9l-0.8-1.2l-0.4-1.1l-0.3-1.2v-1.4l0.1-0.2l-0.1-0.2v-0.6l0.6-2.1l0.6-1l0.7-1.5
		l0.5-0.8l0.2-0.2l0.3-0.7l0.5-0.4l0.3-0.6l0.5-0.8l0.3-0.3l0.9-0.4l0.3-0.4l0.6-0.3l0.7-0.5l0.2-0.1l0.8-0.8l0.8-0.6l0.6-0.8
		l0.3-0.3l0.4-0.5l0.3-0.3l0.5-0.2l0.2-0.3l0.4-0.4l0.7-0.3l0.4-0.2c1.9-1.3,3.8-2.8,5.8-4l0.2-0.2l0.8-0.6l1.1-0.4
		c0.1,0,0.2,0,0.2-0.1l1-0.7l0.6-0.3l0.3-0.1l1.2-0.2c0.9-0.3,1.9-0.7,2.8-0.9l0.8-0.4h0.8l0.5-0.2l0.3,0.2c0.7,0,1.3,0,1.9,0.1
		l0.1-0.1l0.3-0.1l0.2,0.1l0.3-0.1l0.1-0.1l0.5,0.2v-0.1h0.1l-0.1,0.2l0.3,0.2h0.3l0.1,0.2h0.1l0.5,0.3l0.1,0.1
		c0.4,0.3,0.8,0.6,0.8,1l0.3,0.1l-0.1,0.2h0.1l-0.1,0.1V49l0.1,0.3l-0.2,0.6l-0.2,0.3v0.5l-0.3,1.3l-0.7,1.1l-0.8,0.8l-0.9,0.6
		L337,55l-2.9,1.5l-0.4,0.3l-0.6,0.2c-1.9,1.3-4,2.5-6.1,3.6l-0.1,0.2l-2.4,1.2l-1.1,0.8l-2.2,0.9l-1.6,0.6l-2.3,0.4l-1.3,0.1h-0.6
		l-0.5-0.3l-0.2-0.4l0.2-0.3l0.6-1.2l1.2-1.1l1.1-0.4h0.7l0.6,0.2l0.7,0.2h1.1l1-0.2l1.1-0.4h0.3l0.2-0.3l2.4-0.8l2.3-1.1l1.1-0.6
		l0.4-0.5l1.1-0.4l0.2-0.3l1.3-0.4l0.3-0.3l1.1-0.8l3.8-3.2l0.3-0.4l0.2-0.6l0.2-0.3l0.4-1.3l-0.1-0.1l-0.1-0.2l-0.2-0.4l-0.4-0.5
		L337,48l-0.6-0.2h-0.9l-0.6,0.1l-0.3-0.1c-2.3,0.5-4.7,1.8-6.1,2.4l-1,0.5l-0.3,0.3l-0.4,0.3l-0.3-0.1c-0.1,0.1-0.1,0.1-0.2,0.1
		v0.2l-0.5,0.2l-0.2,0.2h-0.2l-1.9,1l-0.9,0.8l-0.6,0.6l-0.8,0.3l-0.3,0.2c-0.8,0.5-1.4,1.1-2.2,1.7l-0.4,0.5l-1.1,1l-0.6,0.6
		l-0.9,0.8l-1.2,1.2l-1.2,1.3l-0.3,0.3l-0.5,0.8l-0.6,0.8l-0.8,0.8L310.3,65.7z"/>
	<path class="st0" d="M361.9,72.3c1.1-0.5,2.2-1.1,3.3-1.7l0.1-0.1l4.4-2.4l0.4-0.4l0.7-0.4l0.2-0.2l1.1-0.8l0.4-0.1l0.3-0.3l1.8-1
		h0.4l0.3-0.3l0.3-0.1l0.3-0.3l0.5-0.3l0.2,0.1l0.4-0.4l0.6-0.3l0.3-0.3l0.6-0.4l0.9-0.3l0.8-0.4c0.6-0.3,1.2-0.8,1.8-1.2
		c0.1-0.1,0.2-0.1,0.3-0.1l0.3-0.3h0.3l0.3,0.1l0.3,0.3l-0.1,0.3l-0.3,0.3l-0.3,0.1l-0.3,0.2l-0.2,0.2h-0.2c-1.6,1.1-3.4,2-5.1,3
		l-0.6,0.6l-0.8,0.3l-0.6,0.3c-0.4,0.2-0.8,0.4-1.1,0.7c-0.6,0.3-1.1,1.3-1.7,1.6l-2,1l-0.6,0.4l-0.5,0.3l-1.1,0.7l-0.2,0.2
		l-0.3,0.2l-0.8,0.4l-1.2,0.8l-0.4,0.3l-1.1,0.4l-0.6,0.4l-0.3,0.2l-1.7,1.2l-0.5,0.7l-0.3,0.2l-0.7,0.7l-0.1,0.5l-0.3,0.2l-0.7-0.1
		l-0.5,0.3l-1.5,0.3l-1.6,0.3l-0.1-0.1l-1.1,0.6h-0.4l-0.2,0.2l-1.9,0.9h-0.3l-0.3,0.2h-0.4l-0.3,0.3l-0.3,0.2h-0.1l-0.3,0.1
		l-0.3-0.1h-0.3l-0.3-0.2l-0.3-0.2L347,79l-0.3-0.1l-0.4-0.8c-0.3-0.5-0.8-1.3-0.8-1.9c-0.1-0.9,0-1.9,0.4-2.8h-0.3v-0.1h0.1
		l0.2-0.3l0.1-0.3l0.3-0.7l0.8-1.3l0.5-1.9l0.5-0.8l0.4-0.3l0.6-0.8l0.4-0.8L350,65h0.2l0.3-0.3l0.1-0.3l0.3-0.5l0.3-0.1l1.3-1.9
		l0.3-0.4l0.8-1.1l0.4-0.8l1.4-2l0.2-0.4l3.4-4.6l0.4-0.8l0.5-0.6V51l0.8-1.2l0.3-0.4l0.2-0.3l1.3-1.9l0.4-0.3l0.3-0.5l0.2-0.1
		l0.3-0.3l0.1-0.2l0.3-0.5l0.1-0.1l0.3-0.3l0.2-0.3l0.5-0.5V44l0.1-0.5l0.5-0.7l0.7-0.6l0.4-0.5l1.4-2v-0.1l0.3-0.3l0.3-0.8l0.3-0.2
		h0.3c0.3-0.4,0.6-0.8,0.9-1.3l0.3-0.5l0.4-0.8l0.5-0.6l0.3-0.3l0.3-0.5l0.3-0.3c0.1-0.1,0.1-0.2,0.2-0.2v-0.3l0.3-0.4l0.3-0.3v-0.3
		l0.3-0.3V32l1.3-1.8l0.3-0.3l0.2-0.4l0.8-1.1l0.2-0.1l0.5-0.7l0.4-0.4l2.9-4.1l0.4-0.3l1.2-1.9l0.6-0.5l0.7-1l0.3-0.3l1-1.6
		l0.2-0.3v-0.1l0.3-0.3l0.1-0.2l0.2-0.4l0.2-0.3l-0.3,0.3l-0.1-0.2v-0.1l0.3-0.4l0.4-0.1V16l0.3-0.6l0.6-0.6l0.4-0.6l0.1-0.3
		l0.6-0.8l1.6-1l0.8-1.1l0.6-0.3l0.2-0.2l0.2-0.3v-0.1h0.1l0.2,0.1l0.3-0.1l0.3-0.3l0.6-0.4l0.4-0.3l0.2-0.3l-0.1-0.2h0.3l0.1,0.2
		l0.4-0.3l0.3,0.1l0.1-0.1c0.2-0.1,0.2-0.3,0.3-0.2h0.2l0.1-0.3V7.9h0.3V8l0.4-0.1l0.5,0.1l0.3,0.5l0.4,0.8l-0.7,1.5l-1.1,0.9
		l-1.3,0.8l-0.3,0.5l-1.8,0.6l-0.4,0.3l-0.6,0.9l-1.2,1l-0.2,0.3l-1.3,1.3l-1.9,2.9l-0.8,0.7l-0.5,0.8l-1.1,1.2v0.1l-1.1,1.5
		l-0.6,0.5l-1.8,2.5l-1.1,1.1l-1.3,1.9l-1.7,2.4l-0.7,0.6l-3.5,5.1l-0.6,0.8l-0.6,1l-0.8,0.8l-0.9,1.1l-2.4,3.1l-0.1,0.5l-0.8,1.2
		l-0.3,0.1v0.3l-0.6,0.3l-0.1,0.6l-0.3,0.3l-0.3,0.3h-0.1l-1.6,2.4l-0.8,1.2l-0.2,0.6l-0.1,0.8l-0.3,0.3l-0.7,0.8l-0.4,0.2l-0.2,0.8
		l-0.7,0.7l-0.8,0.8l-0.8,1.3l-0.4,0.3l-0.8,1.1v0.2l-0.7,1l-1,1.4c0,0,0,0.1-0.1,0.1l-0.9,1.6c-0.1,0.1-0.2,0.2-0.2,0.3l-0.4,0.9
		l-0.6,1.1l-0.4,0.4l-2.1,4l-0.1,0.9l-0.2,0.4l-0.6,1.2l-0.3,0.3l-0.2,0.3l-0.1,1.2l0.2,0.5l0.3,0.3l0.2,0.3l0.3,0.1l0.8,0.4h0.7
		l1.2-0.3l0.3-0.3l0.8-0.2l0.3-0.2l0.9-0.4l1.6-0.6l0.3-0.2l0.8-0.3l0.5-0.3L358,74l0.8-0.4l1.6-0.8L361.9,72.3L361.9,72.3z"/>
	<path class="st0" d="M512.6,36l0.9-1l0.1-0.2l0.2-0.3l-0.1-0.5l0.1-0.3l0.6-0.3l0.4-0.5l1.2-0.9l1.3-1h0.2l0.5-0.5v-0.2L518,30
		l0.5-0.6l0.3-0.1h0.2l1.2-1.3l0.9-1.3l1.3-1.4l1.5-1.9l0.3-0.7L525,22l0.4-0.3l1.3-1.2l0.8-0.8l1.9-1.8l1.3-1.8l2.7-2.3l0.2-0.1
		l0.3-0.3l0.2-0.3l0.3-0.6l0.5-0.3l0.3-0.1l0.2-0.3h-0.4l-0.3-0.1l-0.3,0.1l-0.2-0.1h-0.3l-0.3,0.1l-0.1,0.1l-0.6,0.3l-0.1,0.1
		l-0.3,0.1l-0.1,0.1l-0.6,0.4l-1.3,0.2l-2.1,0.7c-2.1,1.3-4.1,2.4-6.3,3.6l-0.3,0.2l-0.3,0.2c-4.5,2.4-9.3,4.6-14.1,6.8l-1.4,1
		l-0.2,0.3l-0.3,0.1h-0.4l-0.4,0.3h-0.2l-0.1,0.1l-0.8,0.3L503,27l-2.3,0.9l-0.8,0.3l-0.8,0.5l-0.6,0.1l-0.3,0.1
		c-0.3,0.2-0.7,0.3-1,0.4v0.1l-0.3,0.2h-0.3c-2.4,1-4.9,1.9-7.3,2.9l-0.2,0.2l-2,0.8H487l-0.3,0.1l-0.6,0.3l-3.8,1.2l-2.8,1
		l-0.3,0.2l-1.1,0.4l-1.2,0.7l-0.6,0.3l-0.8,0.3l-1,0.2l-1.2,0.5l-2.1,0.3l-0.2,0.2l-0.7,0.1l-0.8,0.6l-0.1,0.3l-0.3-0.2l-0.5-0.3
		c-0.2,0.1-0.3,0.2-0.5,0.2l-0.2,0.1h-0.1l-0.6,0.3l-0.3,0.2h-0.6l-1.3,0.3l-0.1,0.1l-4.9,1.5h-0.6l-2.1,0.7l-0.3,0.2l-0.3,0.2h-1
		l-1.4,0.3l-5.1,7.2v0.2l-0.5,1l-0.5,0.5l-0.3,0.2l-1.9,2.8l-0.1,0.2l-0.3,0.3c-0.6,0.8-1.2,1.6-1.7,2.4l-0.3,0.4l-0.8,1
		c-0.3,0.4-0.6,0.9-0.8,1.3l-0.1,0.3l-0.8,1.2l-0.3,0.3v0.3l-0.3,0.5l-0.3,0.3v0.2l-0.3,0.4l-0.4,0.3l-2.4,3.8v0.2l-0.5,0.8v0.1
		l-0.4,0.7v0.8l-0.5,0.3l-0.4,0.9l-0.9,0.8H435l-0.3,1.1l-0.2,1.3l-0.9,0.8l-0.5,0.8l-1.2,2.5l-0.3,0.8l-1.1,1.6l-0.2,0.9l-1.2,2
		l-0.4,1.3l-1.2,2.9l-1.2,3.1l-0.6,0.8l-0.3,1l-1.5,2.7l-0.7,1.7v0.1c-0.3,1.2-0.8,2.2-1.2,3.3v0.2l0.4,0.2l0.1,0.3h-0.3l0.8,1.3
		l0.4,1.4l-0.1,0.7l-0.3,1.3l-1.4,1l-1-0.2l-1-0.3l-0.4-0.5l-0.2-0.6l-0.3,0.1l-0.1-0.3h0.3l0.1-0.3v-0.4l-0.1-0.8l0.2-0.4
		c0-0.8,0.2-1.5,0.3-2.4l-0.1-0.8l0.4-0.9l0.1-0.2l0.8-2.2v-0.3l0.1-0.3l-0.1-0.4l0.3-0.4l0.2-0.7l0.2-0.3l0.4-0.5l1.1-2.4l0.1-0.3
		l0.1-0.5l0.3-1l0.3-0.4l0.1-0.5l0.2-0.3l1.3-4v-0.4l0.2-0.5l-0.1-0.6l0.2-0.3l0.3-0.6l0.2-0.3l0.6-3.1l-0.2-1l0.3-0.5l0.3-0.9
		l0.2-1.2v-0.5L427,75l0.3-4v-2l-0.2-1l-0.4-0.9l-0.1-0.7v-0.8l-0.1-0.4c-0.7-1.7-1.9-3-3.6-4.2l-0.7-0.3l-0.3-0.3
		c0,0,0-0.1-0.1-0.1l-0.6,0.1l-1-0.8l-1.3-0.8l-1.6-0.6l-0.6-0.3l-0.5-0.3l-0.3-0.3c-0.9-0.4-2-0.9-2.7-1.9H413l-1.2-1.7l-0.1-0.1
		l0.1-0.1l-0.2-0.6l0.6-0.5h0.1l0.1-0.1l0.2-0.3l0.1,0.1l0.1-0.1l0.6-0.2l0.4-0.4l0.2-0.1l0.3-0.4v-0.2l0.3-0.3l0.3-0.4l0.5-0.3h0.1
		v-0.1h0.3l0.1-0.2v-0.2l0.1-0.1v0.1l0.5-0.1v0.1h0.3l0.2,0.1h0.4l0.4-0.1l0.7-0.5h1.3c0.1,0,0.1,0,0.2-0.1l0.2-0.1h0.1l2.1-0.7
		l0.2-0.1l0.8-0.4l0.3-0.3l0.8-0.2l0.3,0.1l0.2,0.2l2-0.4L427,47l0.6-0.1c2.7-0.6,5.6-1.1,8.5-1.6l0.4-0.2l0.3-0.2L437,45l0.3-0.2
		l0.8-0.1l0.8-0.3h0.2l0.8-0.2l0.9-0.1l0.4-0.2l0.2-0.1l0.9,0.2l3.6-0.6c0.1,0,0.2-0.1,0.2-0.1l0.2-0.1l0.1,0.1l0.8-0.2l0.8-0.4
		l0.3-0.2l0.5-0.2l0.3-0.2h0.2l0.2-0.1l0.5,0.2l1.1,0.1c1.3-0.3,2.6-0.6,3.8-0.8l0.5-0.9l0.9-1.3l1-1.5l0.8-1.4l0.3-0.3v-0.2
		l2.2-3.2v-0.3l0.2-0.3l1.9-2.8v-0.3l-0.1-0.3l0.4-0.7l0.5-0.3l0.3-0.1l0.3-0.5l0.2-0.3l0.1-0.2h0.1l0.2-0.3l0.6-1.1l-0.1-0.3
		l0.3-0.5l-0.1-0.3l0.1-0.1l0.1-0.3l0.4-0.4l0.2-0.9l0.5-0.5h0.2l1.6-3.4l0.6-0.8v-0.5l0.3-0.5v-0.6l0.2-0.7l0.2-0.3l0.6-0.6
		l0.2-0.4l0.3-0.4l0.5-0.5l0.1-0.3l0.4-0.8l0.3-0.8l0.3-0.8l0.2-0.3l0.2-0.6l0.2-0.3l-0.1-0.5l0.1-0.3l0.6-0.3l0.4-0.5l0.7-0.6
		l0.1-0.1V7.7l0.1-0.1L474,6.4l0.2-1.4l0.1-0.6l0.6-1.5l1.2-1.1h0.8l0.7,0.3l0.2,0.4v0.2l0.2-0.3h0.5l0.6,0.3l0.3,2.2l-0.8,1.9
		l-0.1,0.4v0.5l-0.7,1.1l-1,1.3l-1.3,1.3l-0.8,1v0.1l-0.2,0.3l0.3,0.4v0.3l-0.3,0.9l-0.5,0.8l-0.1,0.5l-0.6,0.1l-0.3,0.5l-0.3,0.4
		l-2.7,4.1l-0.1,0.5l-0.5,0.4l-0.3,0.6l-0.6,1l-0.3,0.4l-0.3,0.5l-0.1,0.1c-0.1,0.1-0.2,0.2-0.2,0.3l-0.4,0.9l-0.6,0.8h-0.1v0.1
		l0.2,0.2l-0.1,0.1h-0.1l-0.3,0.4h-0.1l-0.4,0.4h-0.1l-0.8,1.3l-0.2,0.2v0.4l-0.3,0.3l0.1,0.1l-0.2,0.1l-2,2.9h0.1l-2.9,4.7
		l-0.7,0.6l-2,3.2l0.5-0.2l3.3-0.8v-0.1l0.6-0.3l0.8-0.1l1.3-0.3l1.5-0.3l1.9-0.5l0.3-0.2l0.8-0.3l1-0.4l0.5-0.2l0.1-0.1l1.5-0.1
		c1-0.3,2-0.6,3-0.9l0.2-0.2h0.2l0.9-0.3l0.3-0.2l1.1-0.5l3.6-1.2l1.2-0.4l0.4-0.1l0.2-0.1v0.1l0.6-0.2l3.4-1.3l1.2-0.4l1-0.1
		l4.3-1.5l0.3-0.3l0.5-0.3l0.8-0.1l1.3-0.8l1.6-0.3l0.3-0.1h0.1c0.5-0.3,1-0.4,1.5-0.6l0.9-0.5l0.9-0.6l1.7-0.5l2.3-0.8l0.3-0.2
		l2.8-1.2l0.1-0.2l0.3-0.2l0.6-0.4l2.6-0.9c0.1,0,0.2-0.1,0.3-0.1l0.3-0.4h0.5c2.4-1.1,4.6-2.3,7-3.5l1-0.8l0.8-0.5l0.6-0.3l0.3-0.3
		l4-2.4l0.1-0.1l0.4-0.2l3.8-1.9l0.2-0.3l0.3-0.2l0.9-0.5l0.5-0.1l0.2,0.1l0.3-0.2l0.7-0.4l0.1-0.1l0.2-0.3l0.3-0.1l0.4-0.3l3.2-2.2
		l0.3-0.4l0.2-0.6V6.1l0.3-0.1l0.3-0.2l0.6-0.1l1.3-0.4l0.2-0.1l0.7-0.8l1.1-1.7l0.8-0.6l1.6-1.5l2.4-0.9l0.9,0.6l0.7,0.7l-0.1,0.7
		l-1,1l-0.3,0.6l-0.2,0.3c-0.8,0.9-1.9,1.9-3.1,2.9l-0.4,0.8l-1.3,1.2l-0.7,0.7h-0.1l-0.4,0.9l-0.8,0.6l-0.3,0.5l-0.3,0.1l-0.1,0.1
		l-0.3,0.1h-0.5l-0.6,0.4l-0.3,0.2l-1.8,1.9v0.1l-0.5,0.7h-0.3l-2.2,2.2l-0.5,0.7l-0.2,0.3l-0.2,0.1l-1,1l-0.3,0.3l-0.4,0.3
		l-1.3,1.3l-1.3,1.6l-1.2,0.7l-0.8,0.7l-0.7,0.7l-1.1,1.5l-0.3,0.3l-1,1.1l-0.3,0.1l-0.6,0.6c-0.7,0.7-1.3,1.3-1.8,1.9l-0.3,0.7
		l-0.2,0.4l-0.7,0.3l-0.8,0.9l-0.6,0.6l-0.4,0.6l-0.3,0.4l-0.4,0.5h-0.1l-1,1.2l-0.1,0.2L515,36l-1.7,1.7l0.1,0.2h-0.2l-0.3,0.3
		l-0.2,0.3h-0.1v0.2l-2.2,2.5l-2.5,3.1l-0.1,0.3l-0.3,0.1c0,0.1-0.1,0.2-0.2,0.3V45l-0.4,0.4c-1.1,1.4-2.3,2.9-3.3,4.3l0.1,0.2v0.3
		l-0.3,0.6l-0.3,0.3l-0.1,0.3l-0.5,0.1l-0.3,0.3l-0.3,0.3l-1.3,1.6l-0.6,1l-0.4,0.5v0.1l-0.1,0.1l-0.3,0.3l-0.2,0.3l-0.3,0.3
		c-0.2,0.2-0.3,0.3-0.3,0.5l-0.3,0.3l-1.6,2.4l-0.1,0.3l-0.8,1.1h-0.2c-0.6,0.9-1.2,1.8-1.7,2.7v0.3l-2.1,2.9l-0.3,0.4v0.3h-0.2
		l-0.3,0.3l-0.5,0.8v0.2l-0.7,0.8c-1.4,2.2-2.9,4.5-4.3,6.8v0.1l-0.3,0.4l-0.1,0.4l-0.4,0.3c-0.7,1.1-1.3,2.2-1.9,3.4h0.1l-0.1,0.3
		h-0.3c0,0.1,0,0.2-0.1,0.2l0.1,0.3l-0.5,0.4c-1.3,2.5-2.6,5.2-3.7,7.8l-0.1,0.3l-0.2,0.2l-1.3,3.5v0.3l-0.2,0.2
		c-0.5,1.3-1,2.6-1.3,3.9l-0.1,0.7l-0.1,0.6v0.7l-0.5,2.1v0.2l-0.5,1l-0.1,0.9l0.2,0.2l-0.2,0.2l-0.2,0.5l-0.3,1.9v1.3l-0.1,0.3
		h-0.1v2.9l0.1,0.1l0.2,0.8l0.1,0.3l0.1,0.3l-0.1,0.2l0.2,0.6l0.3,0.3l0.1,1l0.3,0.8l0.3,1.3l-0.1,0.2l0.1,0.2l0.2,0.4v0.4l0.2,0.7
		l0.3,0.3l0.5,0.1l0.3,0.3l0.2,0.5l-0.1,0.5l-0.3,0.1h-0.4l0.2,0.5l-0.2,0.5v0.2l-0.3,0.2l-0.5-0.3l-0.3-1.2l-0.2-0.3l0.1-0.3
		c-0.1-0.1-0.1-0.3-0.1-0.3l-0.2-0.3v-0.3l-0.3-0.4l-0.1-0.6l-0.3-0.4l-0.2-0.8V116c-0.6-1.9-1-3.9-0.8-5.7v-0.5l-0.3-0.3l-0.1-0.3
		l0.3-0.6v-0.8l0.3-1.5l0.5-1.6l0.3-0.2V104l0.2-0.7l0.3-1l0.3-1.4l0.2-0.8l0.1-0.3v-0.5l0.3-1.1l0.2-0.7l0.4-1.9
		c0.2-0.8,0.4-1.6,0.8-2.5v-0.3l0.3-0.5l0.8-1.9l-0.2-0.6l0.1-0.3l0.5-0.3l0.1-0.2c0.5-1.2,1.2-2.5,1.9-3.9l0.3-0.8l0.3-0.3l0.1-0.9
		l0.2-0.3l0.4-0.6l0.4-0.3l0.3-0.5l0.3-0.3c0.8-1.3,1.5-2.8,2.4-4.1l0.1-0.3l0.3-0.4l0.2-0.2l0.8-1.4l0.6-1.5l0.8-1.3l0.3-0.3l1-1.4
		l0.2-0.3l1-1.6v-0.1l0.2-0.6l0.3-0.4l0.2-0.6l0.3-0.6l0.3-0.3l0.6-0.4l0.6-0.8c1.1-1.8,2.3-3.5,3.5-5.2l0.3-0.6l0.6-0.9l0.6-0.6
		l0.4-0.5l-0.1-0.1v-0.6l-0.2,0.1V56h0.2l0.1-0.2l0.1-0.3l0.2-0.3l0.6-0.8l0.4-1.3l0.5-0.4l0.2-0.2l0.4-0.5l0.3-0.5l0.3-0.3
		l-0.3-0.1l0.1-0.3l0.2-0.2l0.2-0.1v0.1l-0.1,0.3l0.6-0.6l0.1-0.3l0.3-0.1l0.9-1.2l0.3-0.3l0.5-0.6l0.4-0.6l1.1-1.3l0.1-0.3l2.5-3
		l0.3-0.3l0.4-0.5l0.1-0.2l0.6-0.8l0.3-0.1l0.1-0.3l1.1-1.3l0.2-0.1l0.4-0.4l0.2-0.3l0.3-0.3h0.1l0.3-0.4l0.3-0.3l0.1-0.3l0.4-0.5
		L512.6,36z M422,51.2c-0.2,0-0.3,0.2-0.4,0.2l-0.3,0.2h-0.2l-1.3,1l-1.5,1.3l-0.9,0.4L417,55v0.3l0.2,0.1v0.1l0.1,0.2l0.3,0.3
		l0.5,0.3h0.6l0.6,0.4l0.4,0.8l1.2,0.7l0.3,0.1l1,0.6l0.3,0.3l0.1,0.1l1.3,0.7l0.6,0.8c0.8,0.8,1.6,1.7,2.2,2.5l0.4,0.2l0.2,0.3v0.3
		l-0.1,0.3c0.3,0.7,0.7,1.3,0.8,1.9c0.5,2.1,0.6,4.4,0.5,6.8l0.1,0.3l0.1,0.6l-0.3,0.8v0.8l0.2,0.9l-0.3,1l-0.3,0.9l0.1,0.2
		l-0.2,1.1l-0.2,0.2c-0.2,1.4-0.5,2.9-0.8,4.4l0.7-1.3v-0.5l0.2-0.7l0.2-0.3l0.6-0.6l0.2-0.4l0.3-0.4l0.4-0.4c0-0.1,0.1-0.3,0.2-0.3
		l0.4-0.8l0.3-0.8l0.5-0.8l0.2-0.3l0.2-0.6l0.2-0.3l-0.1-0.5l0.1-0.3l0.3-0.3l0.4-0.5l0.9-0.8L434,72l0.1-0.3l0.3-0.3l0.2-0.4h-0.1
		l0.1-0.3l0.3-0.8l0.4-0.7l0.4-0.3l0.4-0.1l0.5-0.8l0.4-0.8v-0.8l0.3-0.2l0.6-0.1c1-1.5,2-3.1,3.1-4.6l0.2-0.5l0.3-0.3l0.3-0.2
		l0.4-0.6l3.2-4.6V55l0.2-0.3l0.3-0.1l1.4-2l2.1-3.1l0.1-0.1l0.5-0.6v-0.2l1.4-2.2l0.4-0.4l0.8-0.8l0.3-0.3v-0.2l0.3-0.6l0.2-0.2
		c-1.3,0.3-2.4,0.5-3.7,0.7h-0.1l-0.3,0.1l-2,0.4h-0.5l-0.8,0.1l-0.3,0.1h-0.3v0.1l-0.7,0.2l-0.5,0.1l-1.5,0.3l-0.2-0.1l-1.3,0.4
		l-1.3,0.3l-2.1,0.4l-0.6,0.3l-0.6,0.2l-0.3,0.1l-3.3,0.8l-0.2,0.1h-0.3l-2.9,0.7l-0.3,0.2l-0.3,0.3l-0.6,0.3l-0.4-0.2l-0.3-0.1
		l-0.2,0.1l-0.3,0.1l-0.1,0.1h-0.2l-0.8,0.4h-0.6l-0.3,0.3l-0.2,0.1l-0.2,0.3h-0.2l-0.1,0.1l-0.5,0.1l-1,0.3H422z"/>
	<path class="st0" d="M539.1,66l0.1-0.2l0.2-0.3l1.5-1.9l0.3-0.7l0.3-0.3l0.1-0.2l0.3-0.2l1-1.1l0.3-0.4v-0.2l0.1,0.1l0.3-0.8
		l-0.1-0.1l-0.4-0.1h-0.8l-1,0.3l-2.4,0.9l-0.6,0.2l-0.4,0.1l-2.4,1.5h-0.1l-0.7,0.4l-0.6,0.3l-0.6,0.3l-1.9,0.9l-1.9,1.1l-0.8,0.3
		l-1.3,0.7L527,67l-1,0.6l-0.5,0.2l-1.5,0.9l-0.5,0.3l-0.5,0.4l-0.8,0.3l-0.8,0.3l-2,1.1l-0.2,0.2l-0.8,0.5h-0.2v0.1h-0.8l-1,0.4
		h-0.7c-0.3,0.2-0.6,0.3-0.8,0.3l-0.3,0.3l-1.7,0.6l-0.3,0.1l-1.3,0.5l-0.2,0.1l-0.3,0.1h-0.3l-0.5-0.1h-0.1c-1.3,0.2-2.4-0.1-2.8-1
		c-0.3-1.1,0-2.4,0.6-3.7l0.3-1l0.3-0.1l0.1-0.3l0.3-0.5l0.2-0.3l0.2-0.1v0.1l0.2-0.4l0.6-0.8l0.9-0.7l0.2-0.2l0.7-1.1l0.3-0.4
		l0.7-0.5l1-0.8l3.8-3.4v-0.1h0.1l1.1-0.9l0.3-0.3l1.4-1.2l0.7-0.4l2.2-1.6l0.1-0.1l1-1.1l0.4-0.4l0.3-0.6l0.2-0.1l0.6,0.1l0.3-0.2
		l0.6-0.2l0.3-0.1l0.4-0.1l0.3-0.3v-0.2l0.7-0.3l2.7-1.3l0.5-0.4l0.3-0.2l0.7-0.2l0.2,0.1l0.2-0.1l0.8-0.3h0.3l0.4-0.3l0.6-0.1
		l0.5-0.2l0.6-0.2l0.3-0.1l0.8,0.3l0.5-0.1h0.5l0.3,0.1h0.2v0.1h0.3l0.3,0.2l0.1,0.2l0.3,0.1l0.2,0.4v0.8l-0.3,0.2
		c-0.1,0.3-0.3,0.4-0.9,1c-0.3,0.2-0.5,0.1-0.6,0l-0.9,0.3l-0.6,0.1h-1.5l-1.3-0.2v0.1h-0.3v-0.1h-0.2l-0.6,0.1h-0.6l-1.2,0.5
		l-1.3,0.6l-1.9,0.8l-1.3,0.6c-0.5,0.3-0.9,0.6-1.4,0.9c-0.1,0.1-0.1,0.1-0.1,0l-0.8,0.6l-0.1,0.1l-0.2,0.1l-3.8,2.8l-0.3,0.3
		l-0.8,0.8l-0.6,0.6l-0.6,0.3l-0.8,0.4l-0.3,0.3l-0.8,0.8l-0.2,0.2l-0.2,0.3l-1,1.3l-0.3,0.2l-0.2,0.2L514,64l-0.2,0.3l-0.3,0.3
		h-0.2l-0.2,0.4l-0.3,0.4l-0.2,0.3l-0.4,0.4l-0.4,0.5l-0.8,1V68l0.1,0.5l-0.1,0.2v0.2l-0.2,0.2l-0.3,0.3l-0.3,0.3l-0.4,0.5l-0.3,0.5
		v0.2l-0.1,0.2v0.5l0.2,0.3l0.3,0.4l0.3,0.2l1.8-0.7l0.8-0.2l1.2-0.4h0.1l0.4-0.1c1.1-0.4,2.2-0.9,3.3-1.4l0.4-0.3l0.6-0.3l0.4-0.3
		h0.7c0.9-0.4,1.9-0.8,2.9-1.3l0.4-0.3l0.6-0.3v-0.1l0.2-0.1l0.3-0.3l0.3-0.1l1.3-0.6l0.7-0.3l0.6-0.3l2.3-1.2l0.6-0.4l2.4-1.1
		l0.5-0.2l1.5-0.8l0.8-0.6l1.5-0.8l0.4-0.3l0.7-0.4l0.4-0.3l1-0.7l1.1-0.7l2.6-0.6h1l0.8,0.2l0.6,0.3l0.3,0.3
		c0.3,0.1,0.5,0.3,0.7,0.6v0.1l0.2,0.1v0.3l-0.1,0.3h0.2l-0.1,0.2l-0.1-0.1l-0.2,0.2l-0.2,0.3l-0.2,0.3l-0.5,0.4
		c-0.1,0.2-0.3,0.3-0.4,0.5l-0.6,0.9l-0.5,0.4l-0.3,0.1l-1,1.2l-0.2,0.2v0.1l-0.2,0.1l-0.5,0.7l-0.2,0.3l-0.2,0.3l-0.7,0.9
		c-0.2,0.2-0.3,0.4-0.3,0.6l-0.3,0.7l-0.1,0.1c-0.2,0.3-0.3,0.7-0.2,0.8c0,0.3-0.1,0.1,0.3,0.2c0.1,0,0.2,0.1,0.3,0.1l0.4-0.1h0.6
		l0.2-0.1h0.6l0.4-0.1l0.2,0.1c0.6-0.1,1.1-0.3,1.9-0.4l0.7-0.2l0.6-0.3h0.5l2.9-0.8l0.3-0.2l0.9-0.3v0.1l1.1-0.3l0.7-0.3l0.3-0.1
		l0.3-0.3l2.8-0.8v-0.2l0.3,0.2l0.8-0.3l0.3-0.3l4-1.2h0.4l2.1-0.7c0.1,0,0.2,0,0.3,0.1h0.2l0.1,0.6l-0.3,0.3h-0.7l-1.4,0.3l-1,0.5
		H560l-1.3,0.3l-0.7,0.3l-1.9,0.9l-1.4,0.6l-1.6,0.5l-1.9,0.7l-0.3,0.2l-0.8,0.3l-0.4,0.3l-0.7,0.3h-0.1l-0.6,0.3l-0.7,0.4l-0.3,0.1
		l-0.2,0.2l-2.2,0.8v0.2l-0.1-0.1l-0.7,0.3l-0.1,0.2l-1.4,0.5l-1.3,0.4l-0.4,0.3l-0.1,0.1l-0.1-0.2l-0.3,0.1l-0.2,0.2l-0.2-0.1
		l-0.1,0.1l-0.6,0.2h-0.9l-0.2-0.1h-0.6l-0.4-0.2l-0.3-0.2l-0.3-0.3l0.1-0.4l-0.1-0.3c-0.1-0.3-0.1-0.6,0.1-1.1l0.3-0.6l0.1-0.3
		l0.6-0.8l0.3-0.4l0.7-0.8L539.1,66z"/>
	<path class="st0" d="M572.5,72.3c1.1-0.5,2.2-1.1,3.3-1.7l0.1-0.1l4.4-2.4l0.4-0.4l0.7-0.4l0.2-0.2l1.1-0.8l0.4-0.1l0.3-0.3l1.8-1
		h0.4l0.3-0.3l0.3-0.1l0.3-0.3l0.5-0.3l0.2,0.1l0.4-0.4l0.6-0.3l0.3-0.3l0.6-0.4l0.9-0.3l0.8-0.4c0.6-0.3,1.2-0.8,1.8-1.2
		c0.1-0.1,0.2-0.1,0.3-0.1l0.3-0.3h0.3l0.3,0.1l0.3,0.3l-0.1,0.3l-0.3,0.3l-0.3,0.1l-0.3,0.2l-0.2,0.2h-0.2c-1.6,1.1-3.4,2-5.1,3
		l-0.6,0.6l-0.8,0.3l-0.6,0.3c-0.4,0.2-0.8,0.4-1.1,0.7c-0.6,0.3-1.1,1.3-1.7,1.6l-2,1l-0.6,0.4l-0.5,0.3l-1.1,0.7l-0.2,0.2
		l-0.3,0.2l-0.8,0.4l-1.2,0.8l-0.4,0.3l-1.1,0.4l-0.6,0.4l-0.3,0.2l-1.7,1.2l-0.5,0.7l-0.3,0.2l-0.7,0.7l-0.1,0.5l-0.3,0.2l-0.7-0.1
		l-0.5,0.3l-1.5,0.3l-1.6,0.3l-0.1-0.1l-1.1,0.6h-0.4l-0.2,0.2l-1.9,0.9h-0.3l-0.3,0.2H561l-0.3,0.3l-0.3,0.2h-0.1l-0.3,0.1
		l-0.3-0.1h-0.3l-0.3-0.2l-0.3-0.2l-1.3-0.4l-0.3-0.1l-0.4-0.8c-0.3-0.5-0.8-1.3-0.8-1.9c-0.1-0.9,0-1.9,0.4-2.8h-0.3v-0.1h0.1
		l0.2-0.3l0.1-0.3l0.3-0.7l0.8-1.3l0.5-1.9l0.5-0.8l0.4-0.3l0.6-0.8l0.4-0.8l0.6-1.3h0.2l0.3-0.3l0.1-0.3l0.3-0.5l0.3-0.1L563,62
		l0.3-0.4l0.8-1.1l0.4-0.8l1.4-2l0.2-0.4l3.4-4.6l0.4-0.8l0.5-0.6V51l0.8-1.2l0.3-0.4l0.2-0.3l1.3-1.9l0.4-0.3l0.3-0.5l0.2-0.1
		l0.3-0.3l0.1-0.2l0.3-0.5l0.1-0.1l0.3-0.3l0.2-0.3l0.5-0.5V44l0.1-0.5l0.5-0.7l0.7-0.6l0.4-0.5l1.4-2v-0.1l0.3-0.3l0.3-0.8l0.3-0.2
		h0.3c0.3-0.4,0.6-0.8,0.9-1.3l0.3-0.5l0.4-0.8l0.5-0.6l0.3-0.3l0.3-0.5l0.3-0.3c0.1-0.1,0.1-0.2,0.2-0.2v-0.3l0.3-0.4l0.3-0.3v-0.3
		l0.3-0.3V32l1.3-1.8l0.3-0.3l0.2-0.4l0.8-1.1l0.2-0.1l0.5-0.7l0.4-0.4l2.9-4.1l0.4-0.3L592,21l0.6-0.5l0.7-1l0.3-0.3l1-1.6l0.2-0.3
		v-0.1l0.3-0.3l0.1-0.2l0.2-0.4l0.2-0.3l-0.3,0.3l-0.1-0.2v-0.1l0.3-0.4l0.4-0.1V16l0.3-0.6l0.6-0.6l0.4-0.6l0.1-0.3l0.6-0.8l1.6-1
		l0.8-1.1l0.6-0.3l0.2-0.2l0.2-0.3v-0.1h0.1l0.2,0.1l0.3-0.1l0.3-0.3l0.6-0.4l0.4-0.3l0.2-0.3l-0.1-0.2h0.3l0.1,0.2l0.4-0.3l0.3,0.1
		l0.1-0.1c0.2-0.1,0.2-0.3,0.3-0.2h0.2l0.1-0.3V7.9h0.3V8l0.4-0.1L606,8l0.3,0.5l0.4,0.8l-0.7,1.5l-1.1,0.9l-1.3,0.8l-0.3,0.5
		l-1.8,0.6l-0.4,0.3l-0.6,0.9l-1.2,1l-0.2,0.3l-1.3,1.3l-1.9,2.9l-0.8,0.7l-0.5,0.8l-1.1,1.2v0.1l-1.1,1.5l-0.6,0.5l-1.8,2.5
		l-1.1,1.1l-1.3,1.9L586,33l-0.7,0.6l-3.5,5.1l-0.6,0.8l-0.6,1l-0.8,0.8l-0.9,1.1l-2.4,3.1l-0.1,0.5l-0.8,1.2l-0.3,0.1v0.3l-0.6,0.3
		l-0.1,0.6l-0.3,0.3l-0.3,0.3h-0.1l-1.6,2.4l-0.8,1.2l-0.2,0.6l-0.1,0.8l-0.3,0.3l-0.7,0.8l-0.4,0.2l-0.2,0.8l-0.7,0.7l-0.8,0.8
		l-0.8,1.3l-0.4,0.3l-0.8,1.1v0.2l-0.7,1l-1,1.4c0,0,0,0.1-0.1,0.1l-0.9,1.6c-0.1,0.1-0.2,0.2-0.2,0.3l-0.4,0.9l-0.6,1.1l-0.4,0.4
		l-2.1,4l-0.1,0.9l-0.2,0.4l-0.6,1.2l-0.3,0.3l-0.2,0.3l-0.1,1.2l0.2,0.5l0.3,0.3l0.2,0.3l0.3,0.1l0.8,0.4h0.7l1.2-0.3l0.3-0.3
		l0.8-0.2l0.3-0.2l0.9-0.4l1.6-0.6l0.3-0.2l0.8-0.3l0.5-0.3l1.2-0.5l0.8-0.4l1.6-0.8L572.5,72.3L572.5,72.3z"/>
	<path class="st0" d="M626.5,50.6v0.2l0.1,0.3l-0.2,0.3l-0.1,0.3l0.2,0.3h0.1l-0.3,1.2l-0.7,0.4l-0.4,0.3l-0.8-0.4l-1.3-0.7
		l-0.6-0.2l-0.2-0.3h-0.3l0.2-0.4v-0.7l0.2-0.5l-0.1-0.8V49l-0.2-0.2l-0.1-0.3l-0.6-0.3h-0.4l-0.7-0.3l-1.1-0.1
		c-2.6,0.3-1.5-0.4-4.6,0.4l-1,0.5l-0.3-0.1l-2.5,0.5l-1.8,0.8l-1.4,0.6l-0.9,0.5l-0.7,0.3l-1,0.3l-1.4,0.7l-0.4,0.2l-2.3,1.1
		l-1.3,0.8l-0.1,0.2l-1.3,0.8l-0.5,0.4l-0.3,0.3l-0.5,0.3l-0.5,0.5l-0.5,0.8l-0.7,0.4l-0.4,0.4l-0.9,0.6c-0.5,0.6-0.8,1.1-0.8,1.6
		c-0.3,0.8,0,0.3,0.4,0.8l0.3,0.4l0.6,0.3l0.4,0.7l0.3,0.4h0.1c0.5,0.3,1,0.5,1.4,0.8l1.1,0.4v0.2l1.4,0.6l0.8,0.2l0.4,0.3h0.1
		l0.1,0.1l2.2,0.8h0.9l0.7,0.2l0.7,0.4l0.1-0.1l0.2,0.2l0.3,0.3l1.6,0.7l0.8,0.1l0.5,0.3h1.7l0.4,0.3l1.2,0.2l1.5,0.3l0.4,0.3
		l1.4,0.5l0.5,0.8l0.2,0.8l-0.1,0.2l-0.1,0.3l-0.3,0.4l-0.6,0.5l-1.2,0.5h-0.4l-0.5,0.3l-1.1,0.3l-0.3-0.1l-0.9-0.1l-2,0.5l-3.7,0.3
		h-1.1l-3.4,0.2h-1l-1.1,0.1l-1.4-0.1l-1,0.3l-1.3,0.3l-2.2-0.4h-1.3l-0.8,0.1l-1.5,0.3h-0.5l-1.2,0.3H586l-1.7,0.4l-1.3,0.4
		l-0.7-0.1l-0.9,0.1l-2.3,0.5l-0.3,0.1l-0.9,0.2l-0.2-0.1l-0.1,0.1h-0.3l-0.3,0.2l-0.3,0.1l-0.2-0.2v-0.2h-0.1l0.1-0.1l-0.1-0.1
		l0.2-0.2l0.2-0.1h0.1l0.3-0.3l2.5-0.5l0.9-0.3l0.2,0.1l1.2-0.3l0.8-0.2h0.3l2.4-1h0.8l0.7-0.2l1.3,0.2l0.9-0.1l0.7-0.2l1.8-0.2
		l1.4-0.2l1.3-0.1l1.8-0.2l0.3,0.1h1l0.6-0.3l0.3,0.1c0.4,0,0.8-0.1,1.3-0.1l0.8-0.3l1.9-0.2l1.4-0.3l2.5-0.1l0.3,0.1l0.5-0.2h0.9
		l0.8-0.4l1.4-0.3l-0.4-0.2l-0.3-0.3l-0.9-0.2l-1.1-0.3l-1.3-0.5l-0.1-0.3l-0.3-0.1h-0.8l-0.5-0.6l-2.1-0.8l-0.3-0.2l-0.6-0.3
		l-2.1-1h-0.1l-0.1-0.1c-1.6-0.6-3-1-3.5-1.4h-0.1v-0.1l-0.5-0.3l-0.4-0.1l-1-0.4l-0.3,0.1l-0.3-0.5h-0.4l-0.8-0.6l-1-1.5l0.1-1.3
		l0.1,0.3c0.1-0.3,0.3-0.7,0.5-1c0.2-0.3,0.5-0.6,0.7-0.9l-0.1-0.1l1.1-1.6l0.6-0.7h0.2l0.3-0.6l0.5-0.3l0.4-0.6l0.5-0.3L596,55
		l0.8-0.3h0.1l0.3-0.3l0.5-0.3h0.1l1.7-1l0.8-0.4l0.8-0.7l0.3-0.2l0.5-0.4l0.3-0.3l0.2-0.4l0.3-0.2h0.6l0.6-0.1l1.7-0.5l1.1-0.2
		l0.5-0.1l0.3-0.1l1.4-0.4l0.3-0.2c1.3-0.2,1.5-0.6,1.9-0.8l0.6-0.4h0.3l0.9,0.1l0.4-0.2l0.4-0.1c0.2,0,0.3,0,0.6-0.1
		c0.8-0.2,1.8-0.4,2.9-0.5l0.5-0.2l0.7-0.3l0.3-0.2h1.2l0.6-0.2l1.4,0.3l0.6,0.2h0.3l0.1,0.1l0.8,0.2l0.3-0.1l1.1,0.3l0.8,0.6
		l0.3,0.3l0.2,0.3c0.2,0.4,0.3,0.9,0.4,1.5h0.2L626.5,50.6L626.5,50.6z"/>
	<path class="st0" d="M657,24.4h1.3l0.4-0.4l2.3-3.1l0.3-0.3l1-1.3l0.4-0.4l0.6-0.8l0.3-0.2l0.9-1.3v-0.2l0.3-0.3l0.2-0.3l0.2-0.3
		l-0.3,0.2h-0.1v-0.2l0.2-0.3l0.3-0.1v0.3l0.3-0.4l0.4-0.4l0.4-0.6l0.1-0.3l0.3-0.5l1.2-0.8l0.7-0.8l0.3-0.3l0.3-0.1l0.1-0.2v-0.1
		l0.1-0.1v0.1l0.5-1.1l0.6-0.6l1.2-0.1l0.7,1.2l0.1,1.2l-1.2,0.8l-0.8,0.8l-0.6,0.9l-0.4,0.6l-0.1,0.5l-2.7,2.5l-0.8,0.6l-3.4,3.6
		l-1.9,2.3l1-0.1l0.3-0.3h0.3l0.3,0.3l2.1-0.2v-0.2h5.6l2.4-0.3h2.5l0.3,0.3h0.7v0.3l2.2,0.2l0.8-0.2l1.2,0.3l1.4-0.2h0.6l0.8,0.1
		l1,0.3l0.6,0.1l0.7,0.1l2.1,0.6h0.2l0.7,0.2h1.1l0.7,0.3l1.9,0.3l0.3,0.1l0.5,0.4c0.3,0.1,0.7,0.2,1,0.3l0.1-0.1l0.1,0.1l2.2,0.8
		l0.2-0.1l0.1,0.2h0.1v0.1l1.3,0.6h0.2l0.3,0.2c0.1,0.1,0.2,0.2,0.3,0.2l0.4,0.1l1,0.5l0.3,0.4l0.8,0.6h0.3l0.3,0.3l0.1,0.2
		c0.5,0.3,0.9,0.8,1.3,1.1c0,0.1,0.1,0.1,0.1,0.2l0.3,0.1l0.6,0.8v0.1l0.2,0.2l0.5,0.2l0.2,0.2l-0.1,0.7L705,35l0.4,1.5l0.1,0.7
		c0,0.1,0.1,0.2,0.2,0.3c0,0.3,0,0.4-0.1,0.5l0.1,0.1l-0.3,0.5L705,38l-0.1-0.3c-0.1-0.2-0.1-0.3-0.1-0.5l-0.6-1.2l-0.6-1.5
		l-0.2-0.3l-0.1-0.1l-0.5-0.8l-0.6-0.7c-0.1-0.1-0.1-0.1-0.1-0.2l-0.9-0.8l-0.3-0.2l-1-0.8l-0.1-0.1c-0.2-0.1-0.4-0.2-0.6-0.3
		l-0.3-0.1l-0.2-0.1l-0.7-0.4l-0.7-0.3l-0.5-0.2l-0.2-0.3l-0.1-0.1h-0.2l-0.3-0.2l-1.3-0.5l-1.6-0.2l-0.6-0.2l-1-0.5l-1.3-0.3
		c-1.3-0.3-2.8-0.5-4.2-0.8l-0.2,0.1l-1.4-0.3l-0.7-0.1h-0.8l-0.6,0.1l-1.5-0.3l-0.8-0.1l-0.5,0.1l-0.3-0.1l-1-0.2
		c-0.7-0.1-1.4-0.1-2-0.1l-0.3,0.1l-0.3-0.1c-0.5,0-0.9-0.1-1.3-0.1c-2.7,0-5.4,0-8.1,0.1l-0.6,0.1l-0.6,0.3v0.3H665l-0.9,0.5h-0.3
		V27h-0.3l-1.3,0.5h-4.1c-0.5,0.7-1.1,1.3-1.5,1.9l-0.3,0.5l-0.5,0.4c-0.5,0.6-1,1.2-1.4,1.8l-0.1,0.3l-1.2,1.3l-1.3,1.9l-0.8,0.9
		l-1.4,1.6l-0.2,0.2l-2.7,3.6l-0.6,0.8l-1.7,2.1l-0.3,0.5l-0.4,0.4l-0.5,0.8l-0.6,1l-0.3,0.4l-0.6,0.7l-0.7,0.7l-0.5,0.7l-0.1,0.1
		l-0.3,0.3l-0.3,0.6l-1.3,1.8l-0.3,1l-4,5.5l-1.3,1.5l-1.8,1.9L631,63l-0.8,0.9l-0.5,0.8l-0.2,0.6l-0.8,1.2L628,68l-0.6,0.8
		l-1.2,1.5l-0.5,1.8v0.5l-0.1,0.4l-0.7,1.1l-0.1,1.1l-0.3,0.9l-0.2,0.4l0.2,0.3l0.4,0.2l0.5-0.1l1.5-0.3l0.5-0.2l0.2-0.3l1.4-0.3
		l0.8-0.3l0.7-0.3L631,75l0.7-0.1l0.8-0.3l0.4-0.3h0.3l0.3-0.1l2.2-1.1l1.6-0.7v-0.1h0.2l0.3-0.4h0.3l0.5-0.2h0.3l0.3-0.3h0.3
		l2.4-1.1l0.8-0.5l0.3-0.1l4-1.9l0.8-0.5l0.6-0.3l1-0.4l1.3-0.7h0.1l0.4-0.5l0.9-0.5l1-0.3l1.2-0.4l2.3-1.2v-0.1h0.1L657,63l0.3-0.3
		l1.2-0.7h0.3v-0.2l0.5-0.1l0.4-0.3l0.3-0.3l0.4,0.1l0.2,0.4l0.1,0.2l-0.1,0.3l-0.3,0.3l-0.7,0.1l-0.3,0.3l-2.3,1.5l-0.7,0.3
		l-0.9,0.6l-1.3,0.7l-0.9,0.4l-0.8,0.3l-1.2,0.6l-0.6,0.3l-0.3,0.3l-0.9,0.5l-1.1,0.7l-1.4,0.6l-0.4,0.2l-0.8,0.7l-0.8,0.3l-0.8,0.3
		l-0.3,0.1l-0.5,0.4l-0.4,0.3l-0.4,0.1l-0.8,0.6l-0.3,0.2l-0.7,0.1l-0.6-0.1l-0.5,0.3l-1.6,0.8l-0.8,0.4l-1.2,0.5h-0.3l-1,0.5
		l-1,0.9l-0.8,0.5l-0.4,0.1h-0.1l0.1,0.2l-0.1,0.3l-0.3,0.1h-0.5l0.2-0.3l-0.3,0.1l-0.8,0.5l-0.3,0.3l-2.4,0.8l-3.1,0.9l-1.1-0.1
		l-0.3,0.1l-0.6-0.2l-0.3-0.1l-0.6-0.3l-0.3-0.5l-0.2-0.8c-0.1-0.3,0.1-1,0.1-1.3c0.1-0.7,0.3-1.5,0.8-2.5v-0.2l0.2-0.6l0.3-0.5
		l0.2-0.2v-0.4l0.2-0.3l0.4-0.5l0.2-0.3l0.5-0.7l0.8-1.5l0.2-0.3l0.2-0.7l0.2-0.5l0.3-0.3l0.5-0.6l0.5-0.8l0.3-0.6l0.3-0.5L628,64
		l0.1-0.2l0.6-0.5l0.8-0.7l0.4-0.6l0.1-0.3l0.2-0.4l0.6-0.3l1.1-1.5l0.1-0.3l0.3-0.3c0.3-0.4,0.7-0.9,1.1-1.3l0.5-0.8l0.7-0.9
		l0.5-0.8l0.5-0.7l0.3-0.2l0.2-0.3l0.3-0.4l0.1-0.1c0.2-0.3,0.4-0.4,0.5-0.7l0.1-0.2l0.3-0.3l0.2-0.2l0.3-0.3v-0.2l0.3-0.3V51
		l1.3-1.8l0.3-0.2c0,0,0.1,0,0.1-0.1l0.1-0.4l0.9-1.2l0.3-0.2l0.3-0.7l0.7-0.6l3.1-4.5l0.4-0.3l1.3-1.8l0.2-0.2
		c0.3-0.3,0.7-0.8,1-1.3l0.1-0.1l0.2-0.3h0.1l1.3-1.8v-0.4l1.3-1.5l0.3-0.2l0.4-0.5l0.1-0.3l1.9-2.6l0.5-0.3l0.6-0.6v-0.1l0.3-0.3
		v-0.2l0.3-0.3l0.3-0.1l0.2-0.3V28l0.2-0.3l0.1-0.3l0.8-1h-0.2l-0.5,0.3l-1.7,0.2l-1,0.2l-2.5,0.2l-2.6,0.3l-0.7,0.1l-0.8,0.1
		l-2.2,0.3l-0.7,0.2l-4.3,1.3l-0.8,0.4l-0.3,0.2l-1,0.2l-1.2-0.1l-1.5,1.1l-0.7,0.3l-1.7,0.3l-1.9-0.4l-0.7-0.8l-0.1-0.8l0.2-0.6
		h0.1c0-0.2,0.1-0.3,0.3-0.5h0.2l-0.1-0.2v-0.2l0.2,0.3c1.4-0.7,3.1-1.2,5.1-1.6l1.3-0.6l1.3-0.1l0.5,0.2l3.5-0.4l0.2-0.1h0.1
		l2.3-0.3l0.1-0.1h0.2l1.5-0.2l0.3,0.1h0.5l0.1-0.1h0.4l2.1-0.4l0.2-0.1l0.4-0.2h0.5l1.4-0.2l0.3-0.1l0.6,0.1
		c0.4-0.1,0.8-0.2,1.3-0.2l0.1-0.1h0.3h0.8L657,24.4z"/>
	<path class="st0" d="M657.9,65.7v0.4l-0.4,0.4l-0.3,0.3c-0.1,0-0.1,0.1-0.1,0.2v0.3l-0.3,0.5l-0.1,2.1c-0.1,0.1-0.2,1.3,0.2,1.7
		c0.5,0.6,0.3,0.6,2.4,1.3l1.4,0.3h1.1l1.3-0.2l6.1-1.3l1.2-0.5l3.3-1.1l0.7-0.4l0.3-0.2h0.2l5.1-2.1h0.3l0.6-0.3l0.8-0.2l2.8-1
		l0.3-0.1c3-1.3,4.2-2,7.2-3.4l1.9-0.7l0.1-0.2l0.5-0.3l1.5-0.5l1.6-0.7V60h0.3l1-0.5l0.1-0.2l4.5-2.8l0.4-0.1
		c0.6-0.3,1.2-0.8,1.9-1.3c0.2-0.2,0.4-0.1,0.5,0.1v-0.1l0.3-0.3l0.3,0.1l0.3,0.8l-0.4,0.2l-0.8,0.3l-0.4,0.2l-1.9,1.3l-0.4,0.6
		h-0.4l-0.3,0.2c-0.8,0.5-1.6,0.9-2.4,1.3l-0.1,0.1l-0.6,0.3l-0.3,0.3h-0.3l-2.7,1.3l-0.1,0.2l-0.3,0.1l-0.7,0.3l-0.2,0.1l-1.2,0.8
		l-3.2,1.3c-1,0.5-2,1.1-3,1.5l-0.3,0.3l-4.2,2l-0.3,0.3l-0.2-0.3l-0.9,0.6l-1,0.2l-0.7,0.3h-0.1c-1.1,0.5-2.2,0.9-3.3,1.3l-1.3,0.7
		l-2.6,1.3l-0.7,0.2l-1,0.2l-1.4,0.4l-0.8,0.1l-0.3,0.2l-0.3,0.3l-1.1,0.3h-0.2c-1,0.3-2.2,0.6-3.4,0.8l-0.3,0.3l-0.4,0.1h0.1
		l-1.7,0.3l-0.5-0.2l-0.9,0.3l-2-0.3l-1.9-0.9l-0.8-1.2l-0.4-1.1l-0.3-1.2v-1.4l0.1-0.2l-0.1-0.2v-0.6l0.6-2.1l0.6-1l0.7-1.5
		l0.5-0.8l0.2-0.2l0.3-0.7l0.5-0.4l0.3-0.6l0.5-0.8l0.3-0.3l0.9-0.4l0.3-0.4l0.6-0.3l0.7-0.5l0.2-0.1l0.8-0.8l0.8-0.6l0.6-0.8
		l0.3-0.3l0.4-0.5l0.3-0.3l0.5-0.2l0.2-0.3l0.4-0.4l0.7-0.3l0.4-0.2c1.9-1.3,3.8-2.8,5.8-4l0.2-0.2l0.8-0.6l1.1-0.4
		c0.1,0,0.2,0,0.2-0.1l1-0.7l0.6-0.3l0.3-0.1l1.2-0.2c0.9-0.3,1.9-0.7,2.8-0.9l0.8-0.4h0.8l0.5-0.2l0.3,0.2c0.7,0,1.3,0,1.9,0.1
		l0.1-0.1l0.3-0.1l0.2,0.1l0.3-0.1l0.1-0.1l0.5,0.2v-0.1h0.1l-0.1,0.2l0.3,0.2h0.3l0.1,0.2h0.1l0.5,0.3l0.1,0.1
		c0.4,0.3,0.8,0.6,0.8,1l0.3,0.1l-0.1,0.2h0.1l-0.1,0.1V49l0.1,0.3l-0.2,0.6l-0.2,0.3v0.5l-0.3,1.3l-0.7,1.1l-0.8,0.8l-0.9,0.6
		l-0.8,0.5l-2.9,1.5l-0.4,0.3l-0.6,0.2c-1.9,1.3-4,2.5-6.1,3.6l-0.1,0.2l-2.4,1.2l-1.1,0.8l-2.2,0.9l-1.6,0.6l-2.3,0.4l-1.3,0.1
		h-0.6l-0.5-0.3l-0.2-0.4l0.2-0.3l0.6-1.2l1.2-1.1l1.1-0.4h0.7l0.6,0.2l0.7,0.2h1.1l1-0.2l1.1-0.4h0.3l0.2-0.3l2.4-0.8l2.3-1.1
		l1.1-0.6l0.4-0.5l1.1-0.4l0.2-0.3l1.3-0.4l0.3-0.3l1.1-0.8l3.8-3.2l0.3-0.4l0.2-0.6l0.2-0.3l0.4-1.3l-0.1-0.1l-0.1-0.2l-0.2-0.4
		l-0.4-0.5l-0.6-0.3l-0.6-0.2h-0.9l-0.6,0.1l-0.3-0.1c-2.3,0.5-4.7,1.8-6.1,2.4l-1,0.5l-0.3,0.3l-0.4,0.3l-0.3-0.1
		c-0.1,0.1-0.1,0.1-0.2,0.1v0.2l-0.5,0.2l-0.2,0.2H673l-1.9,1l-0.9,0.8l-0.6,0.6l-0.8,0.3l-0.3,0.2c-0.8,0.5-1.4,1.1-2.2,1.7
		l-0.4,0.5l-1.1,1l-0.6,0.6l-0.9,0.8l-1.2,1.2l-1.2,1.3l-0.3,0.3l-0.5,0.8l-0.6,0.8l-0.8,0.8L657.9,65.7z"/>
	<path class="st0" d="M723.5,66l0.1-0.2l0.2-0.3l1.5-1.9l0.3-0.7l0.3-0.3l0.1-0.2l0.3-0.2l1-1.1l0.3-0.4v-0.2l0.1,0.1l0.3-0.8
		l-0.1-0.1l-0.4-0.1h-0.8l-1,0.3l-2.4,0.9l-0.6,0.2l-0.4,0.1l-2.4,1.5h-0.1l-0.7,0.4l-0.6,0.3l-0.6,0.3l-1.9,0.9l-1.9,1.1l-0.8,0.3
		l-1.3,0.7l-0.4,0.2l-1,0.6l-0.5,0.2l-1.5,0.9l-0.5,0.3l-0.5,0.4l-0.8,0.3l-0.8,0.3l-2,1.1l-0.2,0.2l-0.8,0.5h-0.2v0.1h-0.8l-1,0.4
		h-0.7c-0.3,0.2-0.6,0.3-0.8,0.3l-0.3,0.3l-1.7,0.6l-0.3,0.1l-1.3,0.5l-0.2,0.1l-0.3,0.1h-0.3l-0.5-0.1h-0.1c-1.3,0.2-2.4-0.1-2.8-1
		c-0.3-1.1,0-2.4,0.6-3.7l0.3-1l0.3-0.1L693,68l0.3-0.5l0.2-0.3l0.2-0.1v0.1l0.2-0.4l0.6-0.8l0.9-0.7l0.2-0.2l0.7-1.1l0.3-0.4
		l0.7-0.5l1-0.8l3.8-3.4v-0.1h0.1l1.1-0.9l0.3-0.3l1.4-1.2l0.7-0.4l2.2-1.6l0.1-0.1l1-1.1l0.4-0.4l0.3-0.6l0.2-0.1l0.6,0.1l0.3-0.2
		l0.6-0.2l0.3-0.1l0.4-0.1l0.3-0.3v-0.2L713,51l2.7-1.3l0.5-0.4l0.3-0.2l0.7-0.2l0.2,0.1l0.2-0.1l0.8-0.3h0.3l0.4-0.3l0.6-0.1
		l0.5-0.2l0.6-0.2l0.3-0.1l0.8,0.3l0.5-0.1h0.5l0.3,0.1h0.2v0.1h0.3l0.3,0.2l0.1,0.2l0.3,0.1l0.2,0.4v0.8l-0.3,0.2
		c-0.1,0.3-0.3,0.4-0.9,1c-0.3,0.2-0.5,0.1-0.6,0l-0.9,0.3l-0.6,0.1h-1.5l-1.3-0.2v0.1H718v-0.1h-0.2l-0.6,0.1h-0.6l-1.2,0.5
		l-1.3,0.6l-1.9,0.8l-1.3,0.6c-0.5,0.3-0.9,0.6-1.4,0.9c-0.1,0.1-0.1,0.1-0.1,0l-0.8,0.6l-0.1,0.1l-0.2,0.1l-3.8,2.8l-0.3,0.3
		l-0.8,0.8l-0.6,0.6l-0.6,0.3l-0.8,0.4l-0.3,0.3l-0.8,0.8l-0.2,0.2l-0.2,0.3l-1,1.3l-0.3,0.2l-0.2,0.2l-0.3,0.2l-0.2,0.3l-0.3,0.3
		h-0.2l-0.2,0.4l-0.3,0.4l-0.2,0.3l-0.4,0.4l-0.4,0.5l-0.8,1V68l0.1,0.5l-0.1,0.2v0.2l-0.2,0.2l-0.3,0.3l-0.3,0.3l-0.4,0.5l-0.3,0.5
		v0.2l-0.1,0.2v0.5l0.2,0.3l0.3,0.4l0.3,0.2l1.8-0.7l0.8-0.2l1.2-0.4h0.1l0.4-0.1c1.1-0.4,2.2-0.9,3.3-1.4l0.4-0.3l0.6-0.3l0.4-0.3
		h0.7c0.9-0.4,1.9-0.8,2.9-1.3l0.4-0.3l0.6-0.3v-0.1l0.2-0.1l0.3-0.3l0.3-0.1l1.3-0.6l0.7-0.3l0.6-0.3l2.3-1.2l0.6-0.4l2.4-1.1
		l0.5-0.2l1.5-0.8l0.8-0.6l1.5-0.8l0.4-0.3l0.7-0.4l0.4-0.3l1-0.7l1.1-0.7l2.6-0.6h1l0.8,0.2l0.6,0.3l0.3,0.3
		c0.3,0.1,0.5,0.3,0.7,0.6v0.1l0.2,0.1v0.3l-0.1,0.3h0.2l-0.1,0.2l-0.1-0.1l-0.2,0.2l-0.2,0.3l-0.2,0.3l-0.5,0.4
		c-0.1,0.2-0.3,0.3-0.4,0.5l-0.6,0.9l-0.5,0.4l-0.3,0.1l-1,1.2l-0.2,0.2v0.1l-0.2,0.1l-0.5,0.7l-0.2,0.3l-0.2,0.3l-0.7,0.9
		c-0.2,0.2-0.3,0.4-0.3,0.6l-0.3,0.7l-0.1,0.1c-0.2,0.3-0.3,0.7-0.2,0.8c0,0.3-0.1,0.1,0.3,0.2c0.1,0,0.2,0.1,0.3,0.1l0.4-0.1h0.6
		l0.2-0.1h0.6l0.4-0.1l0.2,0.1c0.6-0.1,1.1-0.3,1.9-0.4l0.7-0.2l0.6-0.3h0.5l2.9-0.8l0.3-0.2l0.9-0.3v0.1l1.1-0.3l0.7-0.3l0.3-0.1
		l0.3-0.3l2.8-0.8v-0.2l0.3,0.2l0.8-0.3l0.3-0.3l4-1.2h0.4l2.1-0.7c0.1,0,0.2,0,0.3,0.1h0.2l0.1,0.6l-0.3,0.3h-0.7l-1.4,0.3l-1,0.5
		h-0.3l-1.3,0.3l-0.7,0.3l-1.9,0.9l-1.4,0.6l-1.6,0.5l-1.9,0.7l-0.3,0.2l-0.8,0.3l-0.4,0.3l-0.7,0.3h-0.1l-0.6,0.3l-0.7,0.4
		l-0.3,0.1l-0.2,0.2l-2.2,0.8v0.2l-0.1-0.1l-0.7,0.3l-0.1,0.2l-1.4,0.5l-1.3,0.4l-0.4,0.3l-0.1,0.1l-0.1-0.2l-0.3,0.1l-0.2,0.2
		l-0.2-0.1l-0.1,0.1l-0.6,0.2h-0.9l-0.2-0.1h-0.6l-0.4-0.2l-0.3-0.2l-0.3-0.3l0.1-0.4l-0.1-0.3c-0.1-0.3-0.1-0.6,0.1-1.1l0.3-0.6
		l0.1-0.3l0.6-0.8l0.3-0.4l0.7-0.8L723.5,66z"/>
	<path class="st0" d="M784.5,76.2l-0.8,0.3l-0.5,0.6l-0.3,0.3l-0.8,0.3l-1.3,0.6l-1.1,0.6l-0.5,0.1L779,79l-0.3,0.3v0.2l-0.1-0.1
		v-0.1h-0.3l-1,0.5l-0.8,0.1c-0.2,0-0.3,0.1-0.4,0.1l-0.6,0.1l-1.5-0.1l-0.8-0.8l-0.1-0.2l-0.6-0.8l-0.7-1.3l0.1-0.4l-0.4-0.8
		l0.3-2.2c-0.1-0.9,0.3-1.5,0.3-2.5v-0.3l0.2-0.5l-0.1-0.1v-1.6l0.5-1.5l0.1-0.6l0.2-0.7l0.1-0.3l0.2-0.3l0.1-0.2
		c0-0.1,0.1-0.1,0.1-0.1l-0.1-0.5l0.1-0.3l0.3-0.5l0.7-1.8l0.1-0.4l0.1-0.3l0.2-0.3l0.1,0.1l0.4-0.8l0.1-0.3v-0.1l0.1-0.4l0.2-0.3
		l0.2-0.2l0.1-0.2l-0.2-0.2l0.3-0.4v-0.3l0.3-0.8l-0.3-1.1l-0.1-0.3l-0.3-0.8l-0.3-0.3c-0.1,0-0.2-0.1-0.2-0.2l-0.4-0.7L773,55
		l-1.3,1.7l-1.9,1.4l-1.3,1.2l-0.8,0.8l-0.2,0.3l-0.2,0.1l-2.4,2.4l-0.3,0.1l-0.8,0.8l-0.4,0.3c-0.7,0.5-1.3,1.1-1.9,1.6l-0.7,1
		l-0.6,0.8l-1.1,0.7l-0.9,1l-0.5,0.3l-0.7,0.5l-0.9,0.5l-0.4,0.3l-0.6,0.4l-0.8,0.4l-2.4,1.6l-0.1,0.2l-0.1,0.3h-0.3l-0.7,0.3
		l-0.2-0.1c-2.4,1.4-4.8,2.4-7,2.4c-0.5,0-2.1-0.8-2.2-0.8c-0.1-0.3-0.2-0.3-0.2-0.5h-0.1l-0.6-1l-0.1-1.5l0.2-1.1l0.3-0.8l0.6-0.9
		l0.1-0.5l0.5-0.6l0.9-1.9v-0.2l0.3-0.6l1.6-1.5l0.5-0.5l0.1-0.9l0.2-0.3l0.4-0.3l3.7-3.3h0.1c1-1,2.1-2,3.1-2.9l0.1-0.1l0.8-0.7
		l0.5-0.3l1.2-0.8l0.4-0.4l0.5-0.3l0.8-0.4l0.9-0.4l0.9-0.8l0.2-0.1h0.2c0.9-0.5,1.9-1,3-1.4l0.3-0.3l0.3-0.2h0.3l0.9-0.3l0.9-0.7
		l0.3-0.1h0.6c0.5-0.2,1-0.3,1.5-0.6c1.1-0.3,2.4-0.2,3.6,0.1h0.6l0.6,0.3h0.6c0.2,0,0.3,0.1,0.3,0.3l0.8,1.8l0.3-0.4l0.1-0.6
		l0.8-0.2l1.9-1.9l0.4-0.7l0.6-0.3l2-1.9l1.1-1.4l1.4-1.4l1.4-1.6l1.8-1.9l2.3-2.6v-0.1h0.1l1.4-1.7l1-1.3l0.7-0.9l0.4-0.3l0.3-0.6
		l0.9-1v-0.3l0.6-0.3l0.3-0.6l0.8-0.9l1.8-2.1l0.3-0.4l0.1-0.2h0.1l1.7-2.2l0.3-0.5l0.3-0.3l0.2-0.3l0.6-0.8v-0.2l0.3-0.2l0.2-0.4
		l0.5-0.7l1.4-1.9l0.6-0.7l0.3-0.5l1.4-1.9l0.4-0.6l1.5-1.9l1-1l0.4-0.5v-0.2l1.3-1.7L810,8l0.3-0.5l1-0.5l0.3-0.4l0.2-0.2V5.9
		l0.2-0.3V5.5l0.3-0.4V5l0.2,0.1l0.3-0.3h0.2V4.7l0.5-0.4l0.6-0.2l0.3-0.2l0.2,0.1l0.6-0.2l0.1-0.1h0.4l0.3,0.1l0.7,0.1l0.4,0.8
		l0.3,0.5L816,7l-1.1,1.3h0.1l0.6,0.3l0.2,0.6l-0.7,0.7l-0.9,1.1l-0.4,0.7l-0.3,0.1l-0.2,0.3l-0.3-0.1l-1.2,0.3l-1.1,0.3h-0.2
		l-1.1,1.3l-0.7,0.7l-0.5,0.8l-1,0.3l-1.3,1.4l-0.7,0.9l-0.3,0.2l-0.5,0.7l-0.7,0.6l-2.1,2.9l-1.2,1.7l-1.3,1.5l-0.1,0.3l-0.8,1.6
		l-0.4,0.4l-0.3,0.6l-0.6,0.9l-0.1-0.1l-0.6,0.9l-0.4,1l-0.2,0.3l-0.3,0.3l-2.1,2.8v0.2h-0.1l-0.7,0.8v0.3l-2.9,3.9l-0.3,0.3
		l-1.6,2.2v0.1h-0.1c-2.3,3.2-4,5.9-4.9,7.2v0.1l-0.2,0.2l-0.3,0.3l-0.3,0.4v0.1l-0.2,0.1c-1.2,1.9-2.3,3.7-3.3,5.7l-0.1,0.1
		c-0.1,0.2-0.2,0.3-0.2,0.3h0.1V57l-0.2,0.3l0.1,0.3l-0.2,0.8l0.2,0.2l-0.3,0.2l0.1,0.1L778,59v0.4l-0.4,1.2h-0.3l-0.1,0.2l-0.5,0.7
		l-0.1-0.1h-0.3l-0.3,0.4l-0.8,2h-0.1l-0.3,0.7l-0.2,1.3l-0.5,1.3l-0.3,1.6l-0.3,1.6l-0.3,0.7l-0.2,0.4c0,0.3-0.1,0.7,0,0.9
		c-0.2,2.6,0.6,4,1.8,4.7l0.7,0.2l0.1,0.1c0.3,0.1,0.7,0.2,1,0.2l0.6-0.3l1.2-0.3l0.2-0.2l0.9-0.5l0.5-0.1h0.8h0.3
		c1.9-0.8,3.7-1.9,5.3-2.9l1.1-0.8l0.6-0.3l0.2-0.1l0.1-0.2l0.2-0.2l0.6-0.4L790,71l1-0.6l2.2-1.8l0.9-0.4l1.3-1.1l0.4-0.3l1.3-0.9
		l0.4-0.2l0.4-0.3l1.1-0.8v-0.1l0.3-0.2l1.2-1.2l0.8-0.3l0.8-0.4l0.1-0.1l2.2-1.8l0.2-0.2l1-0.7l0.2-0.3l0.1-0.1h0.3l0.2-0.2
		l0.2-0.3l0.3-0.2h0.3l0.1-0.1h0.5l0.3,0.6l-0.3,0.3l-0.4,0.1c-0.1,0-0.1,0.1-0.1,0.1H807l-5.8,4.6l-0.3,0.4l-0.3,0.2l-0.4,0.3
		l-0.3,0.2c-1.4,1.1-2.9,2.1-4.3,3.1l-1.3,0.9l-0.1,0.2l-0.4,0.2l-0.5,0.6l-0.5,0.2l-4.9,3.3l-0.4,0.4l-1.1,0.8l-0.1,0.1h-0.2
		l-0.5,0.3l-0.1,0.3l-0.3,0.1l0.3-0.1v0.3l-0.3,0.3H785l0.1-0.4l-0.1,0.1L784.5,76.2z M748.7,63l-0.8,0.9l-0.8,0.7l-0.4,1.1
		l-0.7,0.6l-0.5,0.8l-0.3,1.2l0.1,1l-0.2,0.3v0.3l-0.6,0.9l-0.2,1l-0.1,1.3l0.1,1l0.1,0.3l0.2,0.2l0.5,0.1h0.4l0.4-0.2
		c0.3-0.2,0.6-0.3,0.8-0.3l0.7-0.7l0.8-0.5l0.6-0.3l1.1-0.3l1-0.5c0.1,0,0.2-0.1,0.3-0.2c1.3-0.8,2.6-1.7,3.7-2.5l0.1-0.2l1-0.7
		c0.3-0.2,0.5-0.3,0.8-0.6l0.7-0.6l0.3-0.5l1.3-1.2l0.6-0.5l0.3-0.4l0.3-0.1l1.3-0.7c1.9-1.7,3.9-3.7,6.5-6.1l1.8-1.6l0.1-0.3
		l1.3-1.4l0.8-0.8v0.2l0.6-0.3l0.5-0.9l0.6-0.8l-0.5-1.1l-0.8-0.8l-0.3-0.2l-0.2-0.2c-1.9-0.4-4.6,0.3-6.7,1.3l-1.5,0.8l-0.7,0.3
		l-0.6,0.2c-0.2,0.1-0.4,0.3-0.5,0.3c-2.2,1.2-3.7,1.5-7.7,4.9l-1.1,1.2l-0.8,1.1l-0.8,0.8v0.2l-0.1,0.3l-0.8,0.5l-0.6,0.6l-0.7,0.8
		l-0.3,0.3h-0.1v0.3L748.7,63z M775.6,53.3L775.6,53.3l0.3,0.3l0.4,0.4l0.2,0.4l0.5,0.1l0.2,0.3v0.1l0.7-0.7V54h0.1l0.1-0.3h0.1v0.2
		h0.1l0.5-0.9l0.1-0.2l0.2-0.4l0.3-0.3l0.1-0.8l0.3-0.2l0.3-0.4l0.5-0.3l0.3-0.5l0.1-0.1l0.9-1.5v-0.1l0.4-0.7l0.7-1l0.3-0.3
		c1.4-2.1,2.9-4.2,4.4-6.2c-1.9,1.9-4.4,4.5-6.7,7l-1.2,1.5l-0.6,0.5h-0.2l-3.2,3.5C775.4,52.8,775.4,53.1,775.6,53.3z"/>
</g>
</svg>
